<svg version="1.1" xmlns="http://www.w3.org/2000/svg" xmlns:xlink="http://www.w3.org/1999/xlink" enable-background="new 0 0 1000 1000" xml:space="preserve" width="980" height="504" style=""><rect id="backgroundrect" width="100%" height="100%" x="0" y="0" fill="none" stroke="none" style="" class=""/>
<metadata> Svg Vector Icons : http://www.onlinewebfonts.com/icon </metadata>

<g class="currentLayer" style=""><title>Layer 1</title><g id="svg_1" class="" fill-opacity="1" fill="#990098"><g transform="translate(0, 511) scale(0.1, -0.1)" id="svg_2" fill="#990098" fill-opacity="1"><path d="M3292.121826171875,5083.247070312499 c-19.200000762939453,-19.200000762939453 -42.20000076293945,-36.5 -51.79999923706055,-36.5 c-7.699999809265137,-1.899999976158142 -21.100000381469727,-3.799999952316284 -28.799999237060547,-5.800000190734863 c-9.600000381469727,-1.899999976158142 -1.899999976158142,-11.5 13.399999618530273,-23 c23,-17.299999237060547 21.100000381469727,-19.200000762939453 -13.399999618530273,-11.5 c-25,5.800000190734863 -44.20000076293945,1.899999976158142 -44.20000076293945,-5.800000190734863 c0,-7.699999809265137 -17.299999237060547,-11.5 -38.400001525878906,-5.800000190734863 c-23,5.800000190734863 -55.70000076293945,-3.799999952316284 -74.9000015258789,-21.100000381469727 c-30.700000762939453,-28.799999237060547 -48,-30.700000762939453 -117.0999984741211,-11.5 c-86.4000015258789,23 -364.79998779296875,36.5 -364.79998779296875,17.299999237060547 c0,-5.800000190734863 -21.100000381469727,-7.699999809265137 -48,-1.899999976158142 c-59.5,9.600000381469727 -124.80000305175781,-11.5 -90.19999694824219,-30.700000762939453 c11.5,-9.600000381469727 -38.400001525878906,-15.399999618530273 -113.30000305175781,-15.399999618530273 c-73,-1.899999976158142 -144,-11.5 -157.39999389648438,-25 c-15.399999618530273,-15.399999618530273 -13.399999618530273,-21.100000381469727 11.5,-21.100000381469727 c17.299999237060547,0 32.599998474121094,-7.699999809265137 32.599998474121094,-19.200000762939453 c0,-11.5 19.200000762939453,-9.600000381469727 49.900001525878906,3.799999952316284 c32.599998474121094,15.399999618530273 53.79999923706055,17.299999237060547 61.400001525878906,1.899999976158142 c21.100000381469727,-30.700000762939453 67.19999694824219,-40.29999923706055 113.30000305175781,-23 c25,9.600000381469727 59.5,9.600000381469727 76.80000305175781,1.899999976158142 c26.899999618530273,-9.600000381469727 23,-15.399999618530273 -23,-23 c-30.700000762939453,-5.800000190734863 -55.70000076293945,-21.100000381469727 -51.79999923706055,-34.599998474121094 c3.799999952316284,-26.899999618530273 9.600000381469727,-26.899999618530273 -69.0999984741211,-5.800000190734863 c-73,21.100000381469727 -80.5999984741211,0 -13.399999618530273,-36.5 c65.30000305175781,-34.599998474121094 61.400001525878906,-51.79999923706055 -9.600000381469727,-42.20000076293945 c-71,9.600000381469727 -73,-15.399999618530273 -3.799999952316284,-59.5 c38.400001525878906,-26.899999618530273 42.20000076293945,-32.599998474121094 13.399999618530273,-26.899999618530273 c-21.100000381469727,5.800000190734863 -55.70000076293945,15.399999618530273 -74.9000015258789,25 c-25,9.600000381469727 -32.599998474121094,7.699999809265137 -25,-5.800000190734863 c7.699999809265137,-11.5 -1.899999976158142,-28.799999237060547 -21.100000381469727,-36.5 c-21.100000381469727,-9.600000381469727 11.5,-19.200000762939453 101.80000305175781,-26.899999618530273 c161.3000030517578,-13.399999618530273 209.3000030517578,-3.799999952316284 132.5,30.700000762939453 l-55.70000076293945,23 l53.79999923706055,1.899999976158142 c28.799999237060547,1.899999976158142 51.79999923706055,11.5 51.79999923706055,23 c0,9.600000381469727 7.699999809265137,15.399999618530273 17.299999237060547,9.600000381469727 c7.699999809265137,-5.800000190734863 30.700000762939453,5.800000190734863 49.900001525878906,26.899999618530273 c30.700000762939453,34.599998474121094 30.700000762939453,38.400001525878906 3.799999952316284,38.400001525878906 c-19.200000762939453,0 -32.599998474121094,9.600000381469727 -32.599998474121094,21.100000381469727 c0,11.5 17.299999237060547,17.299999237060547 38.400001525878906,11.5 c21.100000381469727,-5.800000190734863 38.400001525878906,-1.899999976158142 38.400001525878906,7.699999809265137 s21.100000381469727,17.299999237060547 48,17.299999237060547 c26.899999618530273,0 48,7.699999809265137 48,15.399999618530273 c0,7.699999809265137 28.799999237060547,25 63.400001525878906,38.400001525878906 c48,19.200000762939453 55.70000076293945,26.899999618530273 32.599998474121094,42.20000076293945 c-36.5,23 -25,30.700000762939453 69.0999984741211,42.20000076293945 c71,9.600000381469727 78.69999694824219,7.699999809265137 76.80000305175781,-28.799999237060547 c-1.899999976158142,-30.700000762939453 -21.100000381469727,-46.099998474121094 -73,-57.599998474121094 c-82.5999984741211,-19.200000762939453 -92.19999694824219,-44.20000076293945 -28.799999237060547,-71 c40.29999923706055,-15.399999618530273 40.29999923706055,-17.299999237060547 1.899999976158142,-17.299999237060547 c-21.100000381469727,-1.899999976158142 -40.29999923706055,-15.399999618530273 -40.29999923706055,-30.700000762939453 c0,-21.100000381469727 21.100000381469727,-28.799999237060547 73,-28.799999237060547 c40.29999923706055,0 86.4000015258789,-13.399999618530273 103.69999694824219,-30.700000762939453 c46.099998474121094,-48 84.5,-153.60000610351562 71,-203.5 c-7.699999809265137,-36.5 -5.800000190734863,-40.29999923706055 17.299999237060547,-21.100000381469727 c21.100000381469727,17.299999237060547 34.599998474121094,15.399999618530273 61.400001525878906,-1.899999976158142 c46.099998474121094,-36.5 40.29999923706055,-55.70000076293945 -13.399999618530273,-42.20000076293945 c-30.700000762939453,7.699999809265137 -49.900001525878906,1.899999976158142 -55.70000076293945,-15.399999618530273 c-13.399999618530273,-32.599998474121094 1.899999976158142,-49.900001525878906 40.29999923706055,-49.900001525878906 c21.100000381469727,0 23,5.800000190734863 5.800000190734863,26.899999618530273 c-19.200000762939453,23 -15.399999618530273,25 15.399999618530273,17.299999237060547 c44.20000076293945,-11.5 55.70000076293945,-82.5999984741211 17.299999237060547,-82.5999984741211 c-17.299999237060547,0 -15.399999618530273,-5.800000190734863 3.799999952316284,-19.200000762939453 c25,-15.399999618530273 25,-21.100000381469727 1.899999976158142,-42.20000076293945 c-19.200000762939453,-19.200000762939453 -23,-19.200000762939453 -13.399999618530273,0 c7.699999809265137,13.399999618530273 1.899999976158142,23 -15.399999618530273,23 c-21.100000381469727,0 -28.799999237060547,-15.399999618530273 -26.899999618530273,-51.79999923706055 c5.800000190734863,-69.0999984741211 49.900001525878906,-121 90.19999694824219,-105.5999984741211 c26.899999618530273,9.600000381469727 26.899999618530273,5.800000190734863 3.799999952316284,-21.100000381469727 c-21.100000381469727,-26.899999618530273 -21.100000381469727,-38.400001525878906 0,-65.30000305175781 c55.70000076293945,-71 105.5999984741211,-101.80000305175781 157.39999389648438,-97.9000015258789 c28.799999237060547,3.799999952316284 59.5,-5.800000190734863 69.0999984741211,-19.200000762939453 c17.299999237060547,-26.899999618530273 76.80000305175781,-11.5 80.5999984741211,23 c1.899999976158142,11.5 5.800000190734863,42.20000076293945 9.600000381469727,69.0999984741211 c3.799999952316284,26.899999618530273 9.600000381469727,74.9000015258789 11.5,105.5999984741211 c5.800000190734863,59.5 69.0999984741211,142.10000610351562 101.80000305175781,132.5 c32.599998474121094,-11.5 78.69999694824219,36.5 94.0999984741211,94.0999984741211 c5.800000190734863,28.799999237060547 21.100000381469727,51.79999923706055 34.599998474121094,51.79999923706055 c34.599998474121094,0 149.8000030517578,96 149.8000030517578,126.69999694824219 c0,32.599998474121094 -40.29999923706055,36.5 -71,5.800000190734863 c-13.399999618530273,-13.399999618530273 -19.200000762939453,-5.800000190734863 -19.200000762939453,28.799999237060547 c0,44.20000076293945 3.799999952316284,46.099998474121094 59.5,36.5 c51.79999923706055,-11.5 55.70000076293945,-7.699999809265137 34.599998474121094,17.299999237060547 c-21.100000381469727,26.899999618530273 -82.5999984741211,46.099998474121094 -170.89999389648438,57.599998474121094 c-36.5,3.799999952316284 9.600000381469727,53.79999923706055 49.900001525878906,53.79999923706055 c19.200000762939453,0 32.599998474121094,15.399999618530273 32.599998474121094,38.400001525878906 c0,28.799999237060547 -13.399999618530273,38.400001525878906 -49.900001525878906,40.29999923706055 c-42.20000076293945,0 -44.20000076293945,1.899999976158142 -9.600000381469727,15.399999618530273 c32.599998474121094,13.399999618530273 28.799999237060547,17.299999237060547 -26.899999618530273,30.700000762939453 c-63.400001525878906,13.399999618530273 -65.30000305175781,15.399999618530273 -30.700000762939453,40.29999923706055 c34.599998474121094,26.899999618530273 34.599998474121094,26.899999618530273 -1.899999976158142,28.799999237060547 c-19.200000762939453,1.899999976158142 -44.20000076293945,1.899999976158142 -51.79999923706055,0 c-7.699999809265137,-1.899999976158142 -25,23 -34.599998474121094,55.70000076293945 c-11.5,30.700000762939453 -28.799999237060547,53.79999923706055 -36.5,48 c-9.600000381469727,-5.800000190734863 -11.5,15.399999618530273 -7.699999809265137,48 c11.5,71 -32.599998474121094,80.5999984741211 -65.30000305175781,15.399999618530273 c-11.5,-25 -21.100000381469727,-32.599998474121094 -21.100000381469727,-19.200000762939453 c-1.899999976158142,15.399999618530273 -11.5,19.200000762939453 -25,11.5 c-13.399999618530273,-9.600000381469727 -40.29999923706055,-17.299999237060547 -59.5,-17.299999237060547 c-32.599998474121094,-3.799999952316284 -30.700000762939453,1.899999976158142 7.699999809265137,30.700000762939453 c32.599998474121094,25 36.5,36.5 17.299999237060547,36.5 c-15.399999618530273,0 -46.099998474121094,5.800000190734863 -69.0999984741211,11.5 C3342.121826171875,5113.946777343749 3313.32177734375,5106.346679687499 3292.121826171875,5083.247070312499 z" id="svg_3" fill="#990098" fill-opacity="1"/><path d="M5000.921875,5000.747070312499 c-7.699999809265137,-11.5 9.600000381469727,-19.200000762939453 38.400001525878906,-19.200000762939453 c28.799999237060547,0 46.099998474121094,-7.699999809265137 38.400001525878906,-19.200000762939453 c-5.800000190734863,-9.600000381469727 1.899999976158142,-19.200000762939453 17.299999237060547,-19.200000762939453 c38.400001525878906,0 134.39999389648438,36.5 122.9000015258789,48 C5198.7216796875,5012.247070312499 5012.421875,5019.946777343749 5000.921875,5000.747070312499 z" id="svg_4" fill="#990098" fill-opacity="1"/><path d="M4780.1220703125,4969.946777343749 c0,-30.700000762939453 71,-73 113.30000305175781,-69.0999984741211 c40.29999923706055,3.799999952316284 44.20000076293945,1.899999976158142 21.100000381469727,-13.399999618530273 c-25,-19.200000762939453 -25,-21.100000381469727 0,-21.100000381469727 c25,0 25,-1.899999976158142 0,-19.200000762939453 c-25,-17.299999237060547 -25,-21.100000381469727 0,-36.5 c19.200000762939453,-13.399999618530273 38.400001525878906,-1.899999976158142 72.9000015258789,48 c44.20000076293945,65.30000305175781 44.20000076293945,69.0999984741211 9.600000381469727,94.0999984741211 c-42.20000076293945,32.599998474121094 -90.19999694824219,36.5 -71,5.800000190734863 c9.600000381469727,-13.399999618530273 5.800000190734863,-15.399999618530273 -13.399999618530273,-5.800000190734863 C4881.921875,4971.946777343749 4780.1220703125,4985.346679687499 4780.1220703125,4969.946777343749 z" id="svg_5" fill="#990098" fill-opacity="1"/><path d="M2080.721923828125,4870.146484374999 c-30.700000762939453,-19.200000762939453 -65.30000305175781,-92.19999694824219 -51.79999923706055,-107.5 c5.800000190734863,-5.800000190734863 38.400001525878906,-11.5 71,-13.399999618530273 c57.599998474121094,-1.899999976158142 57.599998474121094,-1.899999976158142 11.5,-17.299999237060547 l-48,-13.399999618530273 l48,-19.200000762939453 c36.5,-15.399999618530273 63.400001525878906,-11.5 109.4000015258789,9.600000381469727 c51.79999923706055,25 57.599998474121094,34.599998474121094 42.20000076293945,65.30000305175781 c-11.5,19.200000762939453 -26.899999618530273,30.700000762939453 -38.400001525878906,25 c-9.600000381469727,-7.699999809265137 -17.299999237060547,-1.899999976158142 -17.299999237060547,7.699999809265137 c0,11.5 -9.600000381469727,21.100000381469727 -23,21.100000381469727 c-11.5,0 -36.5,13.399999618530273 -51.79999923706055,26.899999618530273 C2115.221923828125,4870.146484374999 2092.221923828125,4877.846679687499 2080.721923828125,4870.146484374999 z" id="svg_6" fill="#990098" fill-opacity="1"/><path d="M7310.6220703125,4799.146484374999 c-32.599998474121094,-38.400001525878906 -59.5,-48 -121,-46.099998474121094 c-157.39999389648438,3.799999952316284 -286.1000061035156,-46.099998474121094 -266.8999938964844,-101.80000305175781 c7.699999809265137,-25 1.899999976158142,-36.5 -15.399999618530273,-32.599998474121094 c-13.5,1.899999976158142 -57.599998474121094,1.899999976158142 -96,0 c-80.5999984741211,-1.899999976158142 -96,-36.5 -34.599998474121094,-74.9000015258789 c21.100000381469727,-13.399999618530273 38.400001525878906,-42.20000076293945 38.400001525878906,-65.30000305175781 c0,-38.400001525878906 -1.899999976158142,-38.400001525878906 -48,11.5 c-49.900001525878906,53.79999923706055 -63.400001525878906,57.599998474121094 -117.0999984741211,36.5 c-30.700000762939453,-11.5 -30.700000762939453,-13.399999618530273 3.799999952316284,-26.899999618530273 c32.599998474121094,-13.399999618530273 32.599998474121094,-15.399999618530273 -7.699999809265137,-15.399999618530273 c-23,-1.899999976158142 -48,9.600000381469727 -53.79999923706055,25 c-21.100000381469727,53.79999923706055 -57.599998474121094,11.5 -49.900001525878906,-55.70000076293945 c5.800000190734863,-53.79999923706055 17.299999237060547,-65.30000305175781 57.599998474121094,-71 c49.900001525878906,-5.800000190734863 88.30000305175781,-73 44.20000076293945,-73 c-11.5,0 -21.100000381469727,13.399999618530273 -21.100000381469727,28.799999237060547 s-13.399999618530273,28.799999237060547 -28.799999237060547,28.799999237060547 c-15.399999618530273,0 -28.799999237060547,-11.5 -28.799999237060547,-26.899999618530273 c0,-44.20000076293945 -55.70000076293945,-88.30000305175781 -111.30000305175781,-86.4000015258789 c-46.099998474121094,0 -48,1.899999976158142 -13.399999618530273,17.299999237060547 c69.0999984741211,26.899999618530273 84.5,61.400001525878906 67.19999694824219,149.8000030517578 c-7.699999809265137,46.099998474121094 -9.600000381469727,99.80000305175781 -5.800000190734863,121 c15.399999618530273,53.79999923706055 -82.5,51.79999923706055 -99.80000305175781,-1.899999976158142 c-5.699999809265137,-21.100000381469727 -19.200000762939453,-38.400001525878906 -28.799999237060547,-38.400001525878906 c-25,0 -15.399999618530273,-82.5999984741211 15.399999618530273,-113.30000305175781 c38.400001525878906,-40.29999923706055 11.5,-48 -57.599998474121094,-15.399999618530273 c-117.0999984741211,53.79999923706055 -144,55.70000076293945 -155.5,15.399999618530273 c-5.800000190734863,-26.899999618530273 -23,-34.599998474121094 -72.9000015258789,-32.599998474121094 c-36.5,3.799999952316284 -76.80000305175781,-3.799999952316284 -90.30000305175781,-15.399999618530273 c-17.299999237060547,-11.5 -30.700000762939453,-11.5 -38.400001525878906,1.899999976158142 c-15.399999618530273,23 -157.39999389648438,-25 -157.39999389648438,-53.79999923706055 c0,-9.600000381469727 -19.200000762939453,-17.299999237060547 -40.29999923706055,-17.299999237060547 c-30.700000762939453,0 -38.400001525878906,9.600000381469727 -30.700000762939453,38.400001525878906 c5.800000190734863,23 0,38.400001525878906 -15.399999618530273,38.400001525878906 c-13.5,0 -23,-21.100000381469727 -21.100000381469727,-51.79999923706055 c1.899999976158142,-34.599998474121094 -7.699999809265137,-51.79999923706055 -23,-48 c-38.400001525878906,7.699999809265137 -101.80000305175781,-34.599998474121094 -88.30000305175781,-57.599998474121094 c9.600000381469727,-13.399999618530273 -3.799999952316284,-17.299999237060547 -38.400001525878906,-11.5 c-38.400001525878906,7.699999809265137 -49.900001525878906,3.799999952316284 -42.20000076293945,-15.399999618530273 c11.5,-32.599998474121094 1.899999976158142,-32.599998474121094 -48,-7.699999809265137 c-19.200000762939453,11.5 -36.5,34.599998474121094 -36.5,51.79999923706055 c0,17.299999237060547 -15.399999618530273,42.20000076293945 -32.599998474121094,55.70000076293945 c-30.700000762939453,23 -26.899999618530273,23 26.899999618530273,5.800000190734863 c73,-23 182.39999389648438,-15.399999618530273 192,13.399999618530273 c7.699999809265137,25 -132.5,103.69999694824219 -186.1999969482422,103.69999694824219 c-19.200000762939453,0 -40.29999923706055,7.699999809265137 -48,19.200000762939453 c-5.699999809265137,9.600000381469727 -23,13.399999618530273 -38.400001525878906,7.699999809265137 c-40.29999923706055,-15.399999618530273 -78.69999694824219,11.5 -46.099998474121094,32.599998474121094 c21.100000381469727,13.399999618530273 17.299999237060547,17.299999237060547 -11.5,19.200000762939453 c-21.100000381469727,1.899999976158142 -46.099998474121094,0 -57.599998474121094,-1.899999976158142 c-9.600000381469727,-1.899999976158142 -32.599998474121094,-5.800000190734863 -48,-7.699999809265137 c-30.700000762939453,-5.800000190734863 -71.0999984741211,-19.200000762939453 -167.10000610351562,-61.400001525878906 c-34.599998474121094,-15.399999618530273 -107.5,-80.5999984741211 -163.1999969482422,-144 c-55.70000076293945,-63.400001525878906 -134.39999389648438,-136.3000030517578 -172.8000030517578,-161.3000030517578 c-63.400001525878906,-42.20000076293945 -69.0999984741211,-51.79999923706055 -53.79999923706055,-103.69999694824219 c7.699999809265137,-30.700000762939453 11.5,-61.400001525878906 5.800000190734863,-67.19999694824219 c-28.799999237060547,-26.899999618530273 53.79999923706055,-30.700000762939453 96,-1.899999976158142 c48,30.700000762939453 48,30.700000762939453 71,-36.5 c11.5,-38.400001525878906 30.700000762939453,-73 40.29999923706055,-78.69999694824219 c32.599998474121094,-21.100000381469727 94.0999984741211,28.799999237060547 94.0999984741211,76.80000305175781 c0,25 15.399999618530273,53.79999923706055 34.599998474121094,65.30000305175781 c26.899999618530273,15.399999618530273 28.799999237060547,23 9.600000381469727,42.20000076293945 c-40.29999923706055,40.29999923706055 -28.799999237060547,90.19999694824219 25,126.69999694824219 c26.899999618530273,17.299999237060547 57.599998474121094,51.79999923706055 67.19999694824219,76.80000305175781 c9.600000381469727,25 32.599998474121094,44.20000076293945 53.79999923706055,44.20000076293945 c63.29999923706055,0 65.30000305175781,-36.5 3.799999952316284,-88.30000305175781 c-105.5999984741211,-88.30000305175781 -65.30000305175781,-199.6999969482422 59.5,-165.10000610351562 c34.599998474121094,9.600000381469727 80.5999984741211,11.5 101.80000305175781,3.799999952316284 c30.700000762939453,-11.5 23,-17.299999237060547 -38.400001525878906,-28.799999237060547 c-121,-21.100000381469727 -132.5,-26.899999618530273 -109.4000015258789,-53.79999923706055 c11.5,-13.399999618530273 13.399999618530273,-36.5 5.800000190734863,-49.900001525878906 c-11.5,-17.299999237060547 -21.100000381469727,-19.200000762939453 -28.799999237060547,-3.799999952316284 c-23,36.5 -49.900001525878906,23 -49.900001525878906,-25 c0,-53.79999923706055 -26.899999618530273,-76.80000305175781 -96,-82.5999984741211 c-26.899999618530273,-1.899999976158142 -80.5999984741211,-7.699999809265137 -121,-9.600000381469727 c-78.69999694824219,-7.699999809265137 -121,23 -101.80000305175781,71 c5.800000190734863,17.299999237060547 0,28.799999237060547 -19.200000762939453,28.799999237060547 c-23,0 -26.899999618530273,-13.399999618530273 -17.299999237060547,-57.599998474121094 c9.600000381469727,-44.20000076293945 5.800000190734863,-57.599998474121094 -15.399999618530273,-57.599998474121094 c-17.299999237060547,0 -44.20000076293945,-13.399999618530273 -59.5,-30.700000762939453 c-17.299999237060547,-15.399999618530273 -30.700000762939453,-25 -30.700000762939453,-19.200000762939453 c0,5.800000190734863 -30.700000762939453,-19.200000762939453 -71,-55.70000076293945 c-40.29999923706055,-36.5 -80.5999984741211,-59.5 -97.9000015258789,-51.79999923706055 c-19.200000762939453,5.800000190734863 -25,1.899999976158142 -15.399999618530273,-11.5 c9.600000381469727,-15.399999618530273 -3.799999952316284,-23 -40.29999923706055,-25 c-53.79999923706055,0 -53.79999923706055,-1.899999976158142 -9.600000381469727,-21.100000381469727 c42.20000076293945,-21.100000381469727 73,-88.30000305175781 57.599998474121094,-134.39999389648438 c-5.800000190734863,-15.399999618530273 -40.29999923706055,-21.100000381469727 -105.5999984741211,-17.299999237060547 l-97.9000015258789,3.799999952316284 l-7.699999809265137,-82.5999984741211 c-11.5,-103.69999694824219 -3.799999952316284,-122.9000015258789 48,-140.1999969482422 c88.30000305175781,-28.799999237060547 224.60000610351562,21.100000381469727 193.89999389648438,71 c-15.399999618530273,25 122.9000015258789,155.5 153.60000610351562,144 c15.399999618530273,-5.800000190734863 44.20000076293945,1.899999976158142 67.19999694824219,17.299999237060547 c36.5,26.899999618530273 42.20000076293945,25 82.5999984741211,-23 c25,-26.899999618530273 67.19999694824219,-61.400001525878906 97.9000015258789,-76.80000305175781 c28.799999237060547,-15.399999618530273 51.79999923706055,-40.29999923706055 51.79999923706055,-57.599998474121094 c0,-15.399999618530273 9.600000381469727,-23 19.200000762939453,-17.299999237060547 c11.5,7.699999809265137 15.399999618530273,19.200000762939453 9.600000381469727,28.799999237060547 c-5.800000190734863,7.699999809265137 1.899999976158142,19.200000762939453 13.399999618530273,23 c15.399999618530273,5.800000190734863 5.800000190734863,19.200000762939453 -23,32.599998474121094 c-55.70000076293945,28.799999237060547 -113.30000305175781,96 -115.19999694824219,132.5 c0,36.5 26.899999618530273,26.899999618530273 96,-34.599998474121094 c34.599998474121094,-30.700000762939453 71,-57.599998474121094 80.5999984741211,-57.599998474121094 c7.699999809265137,0 15.399999618530273,-17.299999237060547 15.399999618530273,-36.5 c0,-21.100000381469727 23,-55.70000076293945 49.900001525878906,-76.80000305175781 c28.799999237060547,-23 40.29999923706055,-40.29999923706055 28.799999237060547,-40.29999923706055 c-13.399999618530273,0 -17.299999237060547,-9.600000381469727 -11.5,-21.100000381469727 c19.200000762939453,-28.799999237060547 34.599998474121094,-5.800000190734863 36.5,53.79999923706055 c1.899999976158142,42.20000076293945 11.5,55.70000076293945 49.900001525878906,59.5 c40.29999923706055,3.799999952316284 49.900001525878906,-3.799999952316284 51.79999923706055,-38.400001525878906 c5.800000190734863,-69.0999984741211 65.30000305175781,-105.5999984741211 167,-99.80000305175781 c96,5.800000190734863 109.5,-13.399999618530273 71.0999984741211,-113.30000305175781 c-23,-59.5 -132.5,-74.9000015258789 -266.8999938964844,-38.400001525878906 c-124.80000305175781,32.599998474121094 -151.6999969482422,30.700000762939453 -163.1999969482422,-13.399999618530273 c-9.600000381469727,-38.400001525878906 -9.600000381469727,-38.400001525878906 -84.5,-1.899999976158142 c-40.29999923706055,21.100000381469727 -101.80000305175781,48 -136.3000030517578,61.400001525878906 c-40.29999923706055,13.399999618530273 -57.599998474121094,28.799999237060547 -46.099998474121094,40.29999923706055 c9.600000381469727,9.600000381469727 15.399999618530273,34.599998474121094 9.600000381469727,51.79999923706055 c-7.699999809265137,30.700000762939453 -25,34.599998474121094 -136.3000030517578,25 c-71,-3.799999952316284 -149.8000030517578,-19.200000762939453 -176.60000610351562,-30.700000762939453 c-26.899999618530273,-13.399999618530273 -69.0999984741211,-21.100000381469727 -96,-19.200000762939453 c-57.599998474121094,3.799999952316284 -144,-74.9000015258789 -161.3000030517578,-149.8000030517578 c-5.800000190734863,-28.799999237060547 -28.799999237060547,-57.599998474121094 -49.900001525878906,-63.400001525878906 c-21.100000381469727,-5.800000190734863 -61.400001525878906,-51.79999923706055 -90.19999694824219,-99.80000305175781 c-40.29999923706055,-71 -49.900001525878906,-111.4000015258789 -51.79999923706055,-222.6999969482422 c-1.899999976158142,-124.80000305175781 1.899999976158142,-142.10000610351562 49.900001525878906,-192 c30.700000762939453,-28.799999237060547 53.79999923706055,-59.5 53.79999923706055,-69.0999984741211 s32.599998474121094,-38.400001525878906 73,-63.400001525878906 c55.70000076293945,-38.400001525878906 80.5999984741211,-44.20000076293945 119,-30.700000762939453 c26.899999618530273,9.600000381469727 63.400001525878906,13.399999618530273 80.5999984741211,9.600000381469727 c19.200000762939453,-5.800000190734863 73,1.899999976158142 121,15.399999618530273 c78.69999694824219,25 88.30000305175781,23 109.4000015258789,-7.699999809265137 c13.399999618530273,-19.200000762939453 46.099998474121094,-34.599998474121094 73,-32.599998474121094 c44.20000076293945,1.899999976158142 48,-3.799999952316284 48,-88.30000305175781 c0,-63.400001525878906 11.5,-101.80000305175781 40.29999923706055,-134.39999389648438 c74.9000015258789,-82.5999984741211 99.80000305175781,-213.10000610351562 55.70000076293945,-295.70001220703125 c-36.5,-71 -36.5,-90.19999694824219 7.699999809265137,-176.60000610351562 c21.100000381469727,-40.29999923706055 44.20000076293945,-107.5 49.900001525878906,-147.8000030517578 c7.699999809265137,-42.20000076293945 25,-90.19999694824219 38.400001525878906,-105.5999984741211 c25,-30.700000762939453 57.599998474121094,-115.19999694824219 51.79999923706055,-138.1999969482422 c-7.699999809265137,-34.599998474121094 55.70000076293945,-51.79999923706055 145.89999389648438,-40.29999923706055 c88.30000305175781,9.600000381469727 109.4000015258789,23 188.1999969482422,105.5999984741211 c48,51.79999923706055 82.5999984741211,105.5999984741211 78.69999694824219,119 c-5.800000190734863,15.399999618530273 9.600000381469727,44.20000076293945 36.5,67.19999694824219 c36.5,32.599998474121094 42.20000076293945,48 28.799999237060547,86.4000015258789 c-19.200000762939453,48 17.299999237060547,96 109.4000015258789,144 c34.599998474121094,17.299999237060547 42.20000076293945,38.400001525878906 42.20000076293945,107.5 c0,46.099998474121094 -7.699999809265137,90.19999694824219 -19.200000762939453,96 c-25,15.399999618530273 -25,111.30000305175781 1.899999976158142,169 c11.5,25 69.0999984741211,88.30000305175781 126.69999694824219,140.10000610351562 c99.80000305175781,90.19999694824219 178.5,205.39999389648438 178.5,263 c0,23 -17.299999237060547,25 -88.30000305175781,11.5 c-96,-17.299999237060547 -122.9000015258789,-11.5 -122.9000015258789,30.700000762939453 c0,13.399999618530273 -23,44.20000076293945 -51.79999923706055,67.19999694824219 c-48,36.5 -86.4000015258789,88.30000305175781 -111.30000305175781,153.60000610351562 c-7.699999809265137,15.399999618530273 -40.29999923706055,84.5 -73,151.6999969482422 c-74.9000015258789,151.6999969482422 -84.5,176.60000610351562 -44.20000076293945,126.69999694824219 c21.100000381469727,-28.799999237060547 28.799999237060547,-30.700000762939453 30.700000762939453,-9.600000381469727 c0,30.700000762939453 134.39999389648438,-163.1999969482422 134.39999389648438,-195.8000030517578 c0,-11.5 26.899999618530273,-51.79999923706055 57.599998474121094,-92.19999694824219 c32.599998474121094,-40.29999923706055 57.599998474121094,-96 57.599998474121094,-124.80000305175781 c0,-48 3.799999952316284,-49.900001525878906 59.5,-38.400001525878906 c128.60000610351562,28.799999237060547 301.3999938964844,126.69999694824219 364.79998779296875,207.3000030517578 l42.20000076293945,55.70000076293945 l-55.70000076293945,44.20000076293945 c-34.599998474121094,28.799999237060547 -63.400001525878906,38.400001525878906 -73,26.899999618530273 c-26.899999618530273,-25 -86.4000015258789,-21.100000381469727 -115.19999694824219,7.699999809265137 c-109.4000015258789,109.4000015258789 -103.69999694824219,213.10000610351562 5.800000190734863,107.5 c46.099998474121094,-44.20000076293945 74.9000015258789,-55.70000076293945 107.5,-48 c28.799999237060547,7.699999809265137 48,1.899999976158142 55.70000076293945,-17.299999237060547 c7.699999809265137,-21.100000381469727 42.20000076293945,-28.799999237060547 132.5,-28.799999237060547 c97.9000015258789,0 130.60000610351562,-7.699999809265137 157.39999389648438,-38.400001525878906 c19.200000762939453,-21.100000381469727 48,-38.400001525878906 65.30000305175781,-38.400001525878906 c26.899999618530273,0 26.899999618530273,-3.799999952316284 1.899999976158142,-19.200000762939453 c-23,-15.399999618530273 -23,-19.200000762939453 7.699999809265137,-30.700000762939453 c21.100000381469727,-7.699999809265137 40.29999923706055,-3.799999952316284 51.79999923706055,13.399999618530273 c9.600000381469727,15.399999618530273 17.299999237060547,19.200000762939453 19.200000762939453,7.699999809265137 c11.5,-119 107.5,-393.6000061035156 136.3000030517578,-393.6000061035156 c23,0 72.9000015258789,109.4000015258789 72.9000015258789,157.39999389648438 c0,30.700000762939453 30.700000762939453,69.0999984741211 96,120.9000015258789 c53.79999923706055,42.20000076293945 96,82.5999984741211 96,90.19999694824219 c0,9.600000381469727 15.399999618530273,15.399999618530273 34.599998474121094,15.399999618530273 s46.099998474121094,11.5 59.5,25 c19.200000762939453,17.299999237060547 28.799999237060547,17.299999237060547 34.599998474121094,0 c3.799999952316284,-11.5 25,-40.29999923706055 46.099998474121094,-65.30000305175781 c19.200000762939453,-23 36.5,-59.5 36.5,-78.69999694824219 c0,-26.899999618530273 11.5,-34.599998474121094 42.20000076293945,-30.700000762939453 c46.099998474121094,5.800000190734863 67.19999694824219,-40.29999923706055 71,-159.39999389648438 c1.899999976158142,-36.5 15.399999618530273,-84.5 30.700000762939453,-105.5999984741211 c15.399999618530273,-19.200000762939453 28.799999237060547,-49.900001525878906 28.799999237060547,-67.19999694824219 c0,-28.799999237060547 57.599998474121094,-94.0999984741211 82.5999984741211,-94.0999984741211 c24.899999618530273,0 -25,113.30000305175781 -71.0999984741211,159.39999389648438 c-51.79999923706055,51.79999923706055 -59.5,88.30000305175781 -32.599998474121094,157.39999389648438 c13.399999618530273,36.5 21.100000381469727,32.599998474121094 86.4000015258789,-32.599998474121094 c71,-71 72.9000015258789,-71 119,-38.400001525878906 c63.400001525878906,46.099998474121094 61.400001525878906,130.60000610351562 -5.699999809265137,199.6999969482422 c-48,49.900001525878906 -49.900001525878906,55.70000076293945 -17.299999237060547,90.19999694824219 c21.100000381469727,23 57.599998474121094,36.5 101.69999694824219,36.5 c36.5,0 76.80000305175781,9.600000381469727 88.30000305175781,21.100000381469727 c11.5,11.5 34.599998474121094,21.100000381469727 51.79999923706055,21.100000381469727 c36.5,0 101.80000305175781,51.79999923706055 121,96 c7.699999809265137,15.399999618530273 26.899999618530273,48 44.20000076293945,73 c17.299999237060547,23 23,42.20000076293945 11.5,42.20000076293945 s-17.299999237060547,13.399999618530273 -11.5,28.799999237060547 c7.699999809265137,15.399999618530273 -3.799999952316284,51.79999923706055 -21.100000381469727,80.5999984741211 c-32.599998474121094,49.900001525878906 -32.599998474121094,51.79999923706055 9.600000381469727,86.4000015258789 c23,19.200000762939453 34.599998474121094,36.5 26.899999618530273,36.5 c-9.600000381469727,1.899999976158142 -25,3.799999952316284 -36.5,7.699999809265137 c-9.600000381469727,1.899999976158142 -30.700000762939453,5.800000190734863 -42.20000076293945,5.800000190734863 c-44.20000076293945,5.800000190734863 -26.899999618530273,53.79999923706055 26.899999618530273,78.69999694824219 c34.599998474121094,17.299999237060547 53.79999923706055,17.299999237060547 63.29999923706055,1.899999976158142 c7.699999809265137,-11.5 26.899999618530273,-15.399999618530273 46.099998474121094,-7.699999809265137 c23,9.600000381469727 36.5,1.899999976158142 44.20000076293945,-28.799999237060547 c5.800000190734863,-21.100000381469727 17.299999237060547,-40.29999923706055 26.899999618530273,-40.29999923706055 c9.600000381469727,0 17.299999237060547,-21.100000381469727 17.299999237060547,-48 c0,-30.700000762939453 11.5,-48 28.799999237060547,-48 c46.099998474121094,0 55.70000076293945,51.79999923706055 21.100000381469727,103.69999694824219 c-28.799999237060547,44.20000076293945 -26.899999618530273,49.900001525878906 28.799999237060547,115.19999694824219 c36.5,38.400001525878906 71,61.400001525878906 88.30000305175781,55.70000076293945 c30.700000762939453,-11.5 126.69999694824219,71 176.60000610351562,157.39999389648438 c76.80000305175781,124.80000305175781 61.400001525878906,261.1000061035156 -23,228.5 c-17.299999237060547,-5.800000190734863 -44.099998474121094,0 -57.599998474121094,15.399999618530273 c-21.100000381469727,21.100000381469727 -9.600000381469727,40.29999923706055 72.9000015258789,115.19999694824219 c92.19999694824219,82.5999984741211 105.5999984741211,90.19999694824219 213.10000610351562,94.0999984741211 c61.400001525878906,1.899999976158142 136.3000030517578,-1.899999976158142 167,-11.5 c34.599998474121094,-9.600000381469727 51.79999923706055,-5.800000190734863 51.79999923706055,7.699999809265137 c0,26.899999618530273 59.5,86.4000015258789 101.80000305175781,103.69999694824219 c17.299999237060547,5.800000190734863 44.20000076293945,0 57.599998474121094,-15.399999618530273 c23,-23 32.70000076293945,-21.100000381469727 67.19999694824219,11.5 c23,19.200000762939453 49.900001525878906,36.5 61.400001525878906,36.5 c34.599998474121094,0 -21.100000381469727,-67.19999694824219 -140.1999969482422,-165.10000610351562 c-109.4000015258789,-90.19999694824219 -111.30000305175781,-92.19999694824219 -97.9000015258789,-169 c5.800000190734863,-44.20000076293945 19.200000762939453,-92.19999694824219 26.899999618530273,-107.5 c13.399999618530273,-25 19.200000762939453,-23 30.700000762939453,9.600000381469727 c7.699999809265137,21.100000381469727 34.599998474121094,57.599998474121094 59.5,80.5999984741211 c25,23 44.20000076293945,49.900001525878906 44.20000076293945,61.400001525878906 c0,9.600000381469727 9.600000381469727,21.100000381469727 21.100000381469727,25 c17.299999237060547,5.800000190734863 17.299999237060547,17.299999237060547 1.899999976158142,46.099998474121094 c-13.5,26.899999618530273 -13.5,46.099998474121094 7.699999809265137,74.9000015258789 c26.899999618530273,36.5 44.20000076293945,42.20000076293945 165.10000610351562,55.70000076293945 c40.29999923706055,3.799999952316284 86.4000015258789,17.299999237060547 101.80000305175781,30.700000762939453 c17.299999237060547,15.399999618530273 69.0999984741211,36.5 117.0999984741211,48 l86.4000015258789,21.100000381469727 l-48,48 l-46.099998474121094,46.099998474121094 l74.9000015258789,1.899999976158142 c48,1.899999976158142 74.9000015258789,-5.800000190734863 74.9000015258789,-21.100000381469727 c0,-32.599998474121094 63.400001525878906,-57.599998474121094 73,-28.799999237060547 c3.799999952316284,11.5 24.899999618530273,36.5 44.099998474121094,55.70000076293945 c36.5,32.599998474121094 36.5,34.599998474121094 -1.899999976158142,69.0999984741211 c-34.599998474121094,30.700000762939453 -44.099998474121094,32.599998474121094 -57.599998474121094,9.600000381469727 c-13.399999618530273,-21.100000381469727 -21.100000381469727,-15.399999618530273 -36.5,25 c-24.899999618530273,65.30000305175781 -151.6999969482422,126.69999694824219 -255.39999389648438,128.60000610351562 c-53.79999923706055,0 -72.9000015258789,-7.699999809265137 -72.9000015258789,-30.700000762939453 c0,-23 -9.600000381469727,-26.899999618530273 -32.599998474121094,-15.399999618530273 c-19.200000762939453,9.600000381469727 -82.5999984741211,17.299999237060547 -140.1999969482422,21.100000381469727 c-57.599998474121094,1.899999976158142 -111.4000015258789,3.799999952316284 -119,3.799999952316284 c-9.600000381469727,1.899999976158142 -15.399999618530273,15.399999618530273 -15.399999618530273,30.700000762939453 c0,34.599998474121094 -78.69999694824219,55.70000076293945 -144,40.29999923706055 c-44.20000076293945,-11.5 -119,15.399999618530273 -145.89999389648438,53.79999923706055 c-7.699999809265137,9.600000381469727 -36.5,11.5 -63.400001525878906,3.799999952316284 c-26.899999618530273,-5.800000190734863 -49.900001525878906,-3.799999952316284 -49.900001525878906,5.800000190734863 c0,21.100000381469727 -94.0999984741211,40.29999923706055 -128.60000610351562,26.899999618530273 c-13.5,-5.800000190734863 -25,-21.100000381469727 -25,-34.599998474121094 c0,-36.5 -38.400001525878906,-46.099998474121094 -124.80000305175781,-30.700000762939453 c-57.599998474121094,9.600000381469727 -82.5,5.800000190734863 -99.80000305175781,-17.299999237060547 c-19.200000762939453,-25 -26.899999618530273,-23 -67.19999694824219,15.399999618530273 c-26.899999618530273,23 -59.5,42.20000076293945 -74.9000015258789,42.20000076293945 c-19.200000762939453,1.899999976158142 -17.299999237060547,7.699999809265137 7.699999809265137,26.899999618530273 c32.70000076293945,25 30.700000762939453,28.799999237060547 -26.899999618530273,40.29999923706055 c-42.20000076293945,9.600000381469727 -65.30000305175781,7.699999809265137 -71.0999984741211,-7.699999809265137 c-9.600000381469727,-26.899999618530273 -138.1999969482422,-28.799999237060547 -138.1999969482422,-1.899999976158142 c0,11.5 -34.599998474121094,19.200000762939453 -82.5,17.299999237060547 c-46.099998474121094,-3.799999952316284 -94.0999984741211,1.899999976158142 -107.5,9.600000381469727 c-11.5,7.699999809265137 -32.599998474121094,5.800000190734863 -46.099998474121094,-3.799999952316284 c-24.899999618530273,-19.200000762939453 -128.60000610351562,-48 -128.60000610351562,-34.599998474121094 c0,3.799999952316284 48,30.700000762939453 103.69999694824219,59.5 c57.599998474121094,28.799999237060547 109.4000015258789,65.30000305175781 115.19999694824219,78.69999694824219 c13.399999618530273,36.5 -57.599998474121094,71 -124.80000305175781,61.400001525878906 c-30.700000762939453,-5.800000190734863 -55.70000076293945,-1.899999976158142 -55.70000076293945,7.699999809265137 c0,7.699999809265137 -13.399999618530273,15.399999618530273 -30.700000762939453,15.399999618530273 c-15.399999618530273,0 -23,9.600000381469727 -17.299999237060547,19.200000762939453 C7445.02197265625,4870.146484374999 7349.02197265625,4843.247070312499 7310.6220703125,4799.146484374999 zM5548.1220703125,3445.562011718749 c-17.299999237060547,-32.599998474121094 -9.600000381469727,-48 42.20000076293945,-96 c49.900001525878906,-46.099998474121094 57.599998474121094,-61.400001525878906 36.5,-74.9000015258789 c-15.399999618530273,-9.600000381469727 -53.79999923706055,-13.399999618530273 -86.4000015258789,-5.800000190734863 c-94.0999984741211,17.299999237060547 -224.60000610351562,9.600000381469727 -247.6999969482422,-13.399999618530273 c-36.5,-36.5 -51.79999923706055,-23 -44.20000076293945,34.599998474121094 c5.800000190734863,53.79999923706055 78.69999694824219,174.6999969482422 103.69999694824219,174.6999969482422 c25,0 65.30000305175781,-32.599998474121094 61.400001525878906,-49.900001525878906 c-1.899999976158142,-9.600000381469727 7.699999809265137,-19.200000762939453 21.100000381469727,-25 c15.399999618530273,-3.799999952316284 19.200000762939453,3.799999952316284 11.5,23 c-7.699999809265137,21.100000381469727 3.799999952316284,36.5 40.29999923706055,49.900001525878906 C5563.52197265625,3489.761230468749 5571.1220703125,3487.761230468749 5548.1220703125,3445.562011718749 zM5970.52197265625,3445.562011718749 c0,-7.699999809265137 -17.299999237060547,-26.899999618530273 -40.29999923706055,-40.29999923706055 c-38.400001525878906,-26.899999618530273 -38.400001525878906,-26.899999618530273 -1.899999976158142,-69.0999984741211 c19.200000762939453,-25 40.29999923706055,-38.400001525878906 46.099998474121094,-32.599998474121094 c5.800000190734863,5.800000190734863 15.399999618530273,-3.799999952316284 21.100000381469727,-21.100000381469727 c7.699999809265137,-19.200000762939453 1.899999976158142,-28.799999237060547 -19.200000762939453,-28.799999237060547 c-25,0 -26.899999618530273,-5.800000190734863 -9.600000381469727,-23 c13.399999618530273,-13.399999618530273 23,-42.20000076293945 23,-67.19999694824219 c0,-36.5 -9.600000381469727,-44.20000076293945 -55.70000076293945,-44.20000076293945 c-69.0999984741211,0 -107.5,42.20000076293945 -82.5,90.19999694824219 c15.399999618530273,26.899999618530273 11.5,48 -17.299999237060547,82.5999984741211 c-49.900001525878906,67.19999694824219 -46.099998474121094,121 13.5,155.5 C5897.52197265625,3478.161621093749 5970.52197265625,3476.261474609374 5970.52197265625,3445.562011718749 z" id="svg_7" fill="#990098" fill-opacity="1"/><path d="M6306.52197265625,4789.546874999999 c-21.100000381469727,-9.600000381469727 -69.0999984741211,-21.100000381469727 -107.5,-28.799999237060547 c-86.4000015258789,-13.399999618530273 -240,-144 -170.89999389648438,-144 c38.400001525878906,0 69.0999984741211,17.299999237060547 120.9000015258789,71 c13.5,13.399999618530273 73,38.400001525878906 134.39999389648438,55.70000076293945 c59.5,17.299999237060547 109.4000015258789,40.29999923706055 109.4000015258789,48 C6392.921875,4812.546874999999 6358.32177734375,4810.646484374999 6306.52197265625,4789.546874999999 z" id="svg_8" fill="#990098" fill-opacity="1"/><path d="M1783.121826171875,4733.846679687499 c13.399999618530273,-9.600000381469727 19.200000762939453,-26.899999618530273 13.399999618530273,-38.400001525878906 c-7.699999809265137,-13.399999618530273 1.899999976158142,-21.100000381469727 25,-21.100000381469727 c19.200000762939453,0 49.900001525878906,-5.800000190734863 67.19999694824219,-11.5 c65.30000305175781,-25 26.899999618530273,32.599998474121094 -38.400001525878906,59.5 C1773.5218505859375,4754.946777343749 1742.721923828125,4758.747070312499 1783.121826171875,4733.846679687499 z" id="svg_9" fill="#990098" fill-opacity="1"/><path d="M1957.82177734375,4693.546874999999 c0,-9.600000381469727 19.200000762939453,-19.200000762939453 44.20000076293945,-19.200000762939453 c34.599998474121094,0 36.5,3.799999952316284 13.399999618530273,19.200000762939453 C1978.921875,4718.446777343749 1957.82177734375,4718.446777343749 1957.82177734375,4693.546874999999 z" id="svg_10" fill="#990098" fill-opacity="1"/><path d="M1550.721923828125,4641.646484374999 c11.5,-3.799999952316284 34.599998474121094,-3.799999952316284 48,0 c11.5,5.800000190734863 1.899999976158142,9.600000381469727 -25,9.600000381469727 C1546.921875,4651.247070312499 1537.3218994140625,4647.446777343749 1550.721923828125,4641.646484374999 z" id="svg_11" fill="#990098" fill-opacity="1"/><path d="M3816.32177734375,4641.646484374999 c13.399999618530273,-5.800000190734863 30.700000762939453,-3.799999952316284 36.5,1.899999976158142 c7.699999809265137,5.800000190734863 -3.799999952316284,11.5 -25,9.600000381469727 C3806.721923828125,4653.247070312499 3800.921875,4647.446777343749 3816.32177734375,4641.646484374999 z" id="svg_12" fill="#990098" fill-opacity="1"/><path d="M1356.8218994140625,4607.146484374999 c-94.0999984741211,-32.599998474121094 -101.80000305175781,-40.29999923706055 -51.79999923706055,-53.79999923706055 c25,-5.800000190734863 44.20000076293945,0 51.79999923706055,17.299999237060547 c5.800000190734863,15.399999618530273 21.100000381469727,25 36.5,19.200000762939453 c13.399999618530273,-5.800000190734863 34.599998474121094,3.799999952316284 46.099998474121094,19.200000762939453 C1468.221923828125,4641.646484374999 1450.921875,4641.646484374999 1356.8218994140625,4607.146484374999 z" id="svg_13" fill="#990098" fill-opacity="1"/><path d="M1641.0218505859375,4564.846679687499 c9.600000381469727,-34.599998474121094 3.799999952316284,-44.20000076293945 -26.899999618530273,-44.20000076293945 c-21.100000381469727,0 -44.20000076293945,9.600000381469727 -49.900001525878906,19.200000762939453 c-19.200000762939453,28.799999237060547 -86.4000015258789,23 -121,-13.399999618530273 c-30.700000762939453,-28.799999237060547 -26.899999618530273,-30.700000762939453 49.900001525878906,-21.100000381469727 c78.69999694824219,11.5 113.30000305175781,-9.600000381469727 48,-30.700000762939453 c-19.200000762939453,-5.800000190734863 -7.699999809265137,-5.800000190734863 23,0 c32.599998474121094,5.800000190734863 78.69999694824219,13.399999618530273 105.5999984741211,15.399999618530273 c74.9000015258789,9.600000381469727 76.80000305175781,9.600000381469727 76.80000305175781,30.700000762939453 c0,11.5 -13.399999618530273,19.200000762939453 -30.700000762939453,19.200000762939453 c-17.299999237060547,0 -44.20000076293945,15.399999618530273 -59.5,34.599998474121094 C1631.421875,4605.146484374999 1629.5218505859375,4603.247070312499 1641.0218505859375,4564.846679687499 z" id="svg_14" fill="#990098" fill-opacity="1"/><path d="M2030.721923828125,4584.046874999999 c13.399999618530273,-5.800000190734863 30.700000762939453,-3.799999952316284 36.5,1.899999976158142 c7.699999809265137,5.800000190734863 -3.799999952316284,11.5 -25,9.600000381469727 C2021.121826171875,4595.546874999999 2015.421875,4589.846679687499 2030.721923828125,4584.046874999999 z" id="svg_15" fill="#990098" fill-opacity="1"/><path d="M5945.52197265625,4559.146484374999 c-26.899999618530273,-32.599998474121094 -28.799999237060547,-38.400001525878906 -3.799999952316284,-38.400001525878906 c17.299999237060547,0 34.599998474121094,-13.399999618530273 40.29999923706055,-28.799999237060547 c7.699999809265137,-15.399999618530273 28.799999237060547,-28.799999237060547 49.900001525878906,-28.799999237060547 c32.70000076293945,0 34.599998474121094,5.800000190734863 15.399999618530273,28.799999237060547 c-13.5,15.399999618530273 -19.200000762939453,46.099998474121094 -13.5,67.19999694824219 C6047.32177734375,4610.946777343749 5989.7216796875,4610.946777343749 5945.52197265625,4559.146484374999 z" id="svg_16" fill="#990098" fill-opacity="1"/><path d="M1869.5218505859375,4549.546874999999 c-30.700000762939453,-25 -30.700000762939453,-26.899999618530273 -1.899999976158142,-17.299999237060547 c17.299999237060547,5.800000190734863 32.599998474121094,1.899999976158142 32.599998474121094,-9.600000381469727 c0,-11.5 13.399999618530273,-21.100000381469727 28.799999237060547,-21.100000381469727 s28.799999237060547,17.299999237060547 28.799999237060547,38.400001525878906 C1957.82177734375,4585.946777343749 1921.3218994140625,4589.846679687499 1869.5218505859375,4549.546874999999 z" id="svg_17" fill="#990098" fill-opacity="1"/><path d="M2122.921875,4536.046874999999 c19.200000762939453,-63.400001525878906 15.399999618530273,-61.400001525878906 182.39999389648438,-67.19999694824219 c117.0999984741211,-3.799999952316284 151.6999969482422,1.899999976158142 151.6999969482422,21.100000381469727 c0,38.400001525878906 -49.900001525878906,51.79999923706055 -134.39999389648438,38.400001525878906 c-86.4000015258789,-13.399999618530273 -180.5,3.799999952316284 -163.1999969482422,30.700000762939453 c5.800000190734863,11.5 -1.899999976158142,19.200000762939453 -19.200000762939453,19.200000762939453 C2117.121826171875,4578.346679687499 2111.421875,4566.846679687499 2122.921875,4536.046874999999 z" id="svg_18" fill="#990098" fill-opacity="1"/><path d="M1228.221923828125,4415.148437499999 c-11.5,-28.799999237060547 -25,-61.400001525878906 -30.700000762939453,-69.0999984741211 c-5.800000190734863,-9.600000381469727 13.399999618530273,-26.899999618530273 42.20000076293945,-40.29999923706055 c42.20000076293945,-19.200000762939453 53.79999923706055,-19.200000762939453 73,7.699999809265137 c11.5,15.399999618530273 49.900001525878906,48 86.4000015258789,69.0999984741211 c69.0999984741211,42.20000076293945 65.30000305175781,46.099998474121094 -78.69999694824219,73 C1253.121826171875,4466.947753906249 1245.5218505859375,4463.147460937499 1228.221923828125,4415.148437499999 z" id="svg_19" fill="#990098" fill-opacity="1"/><path d="M2042.32177734375,4417.048339843749 c-5.800000190734863,-17.299999237060547 -5.800000190734863,-46.099998474121094 1.899999976158142,-63.400001525878906 c9.600000381469727,-23 17.299999237060547,-26.899999618530273 23,-9.600000381469727 c5.800000190734863,11.5 19.200000762939453,23 34.599998474121094,23 c13.399999618530273,0 34.599998474121094,13.399999618530273 48,28.799999237060547 c19.200000762939453,23 19.200000762939453,28.799999237060547 -5.800000190734863,28.799999237060547 c-15.399999618530273,0 -42.20000076293945,5.800000190734863 -59.5,11.5 C2065.32177734375,4443.948242187499 2049.921875,4436.248046874999 2042.32177734375,4417.048339843749 z" id="svg_20" fill="#990098" fill-opacity="1"/><path d="M1894.421875,4394.048828124999 c5.800000190734863,-17.299999237060547 -3.799999952316284,-26.899999618530273 -25,-26.899999618530273 c-34.599998474121094,-1.899999976158142 -34.599998474121094,-1.899999976158142 1.899999976158142,-23 c21.100000381469727,-11.5 44.20000076293945,-28.799999237060547 49.900001525878906,-38.400001525878906 c15.399999618530273,-25 74.9000015258789,3.799999952316284 74.9000015258789,34.599998474121094 c0,15.399999618530273 -9.600000381469727,26.899999618530273 -21.100000381469727,26.899999618530273 c-11.5,0 -17.299999237060547,11.5 -11.5,26.899999618530273 c7.699999809265137,17.299999237060547 -3.799999952316284,26.899999618530273 -34.599998474121094,26.899999618530273 C1898.3218994140625,4420.848632812499 1886.721923828125,4411.248535156249 1894.421875,4394.048828124999 z" id="svg_21" fill="#990098" fill-opacity="1"/><path d="M2236.221923828125,4397.848632812499 c-19.200000762939453,-13.399999618530273 -38.400001525878906,-44.20000076293945 -42.20000076293945,-67.19999694824219 c-3.799999952316284,-30.700000762939453 3.799999952316284,-40.29999923706055 38.400001525878906,-42.20000076293945 c38.400001525878906,0 38.400001525878906,-1.899999976158142 5.800000190734863,-15.399999618530273 c-26.899999618530273,-9.600000381469727 -9.600000381469727,-19.200000762939453 67.19999694824219,-34.599998474121094 c130.60000610351562,-26.899999618530273 193.89999389648438,-26.899999618530273 180.5,-3.799999952316284 c-17.299999237060547,26.899999618530273 5.800000190734863,21.100000381469727 57.599998474121094,-13.399999618530273 c26.899999618530273,-17.299999237060547 42.20000076293945,-40.29999923706055 34.599998474121094,-51.79999923706055 c-5.800000190734863,-9.600000381469727 -3.799999952316284,-13.399999618530273 7.699999809265137,-7.699999809265137 c9.600000381469727,7.699999809265137 38.400001525878906,-5.800000190734863 61.400001525878906,-26.899999618530273 c38.400001525878906,-36.5 40.29999923706055,-42.20000076293945 13.399999618530273,-73 c-17.299999237060547,-19.200000762939453 -25,-40.29999923706055 -17.299999237060547,-46.099998474121094 c11.5,-13.399999618530273 -1.899999976158142,-17.299999237060547 -69.0999984741211,-21.100000381469727 c-15.399999618530273,-1.899999976158142 -30.700000762939453,-13.399999618530273 -34.599998474121094,-25 c-5.800000190734863,-17.299999237060547 7.699999809265137,-21.100000381469727 49.900001525878906,-13.399999618530273 c46.099998474121094,9.600000381469727 69.0999984741211,3.799999952316284 94.0999984741211,-23 c28.799999237060547,-34.599998474121094 121,-84.5 151.6999969482422,-84.5 c5.800000190734863,0 -3.799999952316284,17.299999237060547 -23,38.400001525878906 c-38.400001525878906,42.20000076293945 -26.899999618530273,49.900001525878906 30.700000762939453,19.200000762939453 c28.799999237060547,-17.299999237060547 36.5,-13.399999618530273 36.5,13.399999618530273 c0,19.200000762939453 -17.299999237060547,46.099998474121094 -38.400001525878906,59.5 c-38.400001525878906,23 -53.79999923706055,80.5999984741211 -21.100000381469727,80.5999984741211 c9.600000381469727,0 32.599998474121094,-13.399999618530273 48,-28.799999237060547 c25,-25 38.400001525878906,-26.899999618530273 71,-7.699999809265137 c40.29999923706055,21.100000381469727 42.20000076293945,23 5.800000190734863,42.20000076293945 c-19.200000762939453,11.5 -40.29999923706055,25 -46.099998474121094,30.700000762939453 c-5.800000190734863,7.699999809265137 -32.599998474121094,23 -61.400001525878906,34.599998474121094 c-30.700000762939453,13.399999618530273 -53.79999923706055,32.599998474121094 -53.79999923706055,44.20000076293945 s9.600000381469727,15.399999618530273 19.200000762939453,9.600000381469727 c11.5,-7.699999809265137 17.299999237060547,-1.899999976158142 15.399999618530273,13.399999618530273 c-7.699999809265137,28.799999237060547 -122.9000015258789,92.19999694824219 -172.8000030517578,92.19999694824219 c-19.200000762939453,0 -34.599998474121094,11.5 -34.599998474121094,26.899999618530273 c0,13.399999618530273 -21.100000381469727,30.700000762939453 -48,34.599998474121094 c-26.899999618530273,5.800000190734863 -48,1.899999976158142 -48,-5.800000190734863 c0,-9.600000381469727 -17.299999237060547,-17.299999237060547 -40.29999923706055,-17.299999237060547 c-26.899999618530273,0 -36.5,9.600000381469727 -30.700000762939453,26.899999618530273 c17.299999237060547,44.20000076293945 -34.599998474121094,74.9000015258789 -80.5999984741211,49.900001525878906 c-30.700000762939453,-15.399999618530273 -38.400001525878906,-32.599998474121094 -30.700000762939453,-76.80000305175781 c13.399999618530273,-73 -19.200000762939453,-74.9000015258789 -44.20000076293945,-1.899999976158142 c-13.399999618530273,38.400001525878906 -13.399999618530273,61.400001525878906 1.899999976158142,76.80000305175781 C2320.721923828125,4434.348144531249 2280.32177734375,4430.448242187499 2236.221923828125,4397.848632812499 z" id="svg_22" fill="#990098" fill-opacity="1"/><path d="M1416.3218994140625,4365.249023437499 c-46.099998474121094,-26.899999618530273 -44.20000076293945,-55.70000076293945 5.800000190734863,-55.70000076293945 c34.599998474121094,0 36.5,-5.800000190734863 19.200000762939453,-26.899999618530273 c-21.100000381469727,-23 -9.600000381469727,-28.799999237060547 59.5,-36.5 l82.5999984741211,-7.699999809265137 l-82.5999984741211,-1.899999976158142 c-80.5999984741211,-3.799999952316284 -99.80000305175781,-42.20000076293945 -21.100000381469727,-42.20000076293945 c19.200000762939453,0 36.5,-9.600000381469727 36.5,-21.100000381469727 c0,-15.399999618530273 28.799999237060547,-17.299999237060547 92.19999694824219,-9.600000381469727 c49.900001525878906,7.699999809265137 124.80000305175781,13.399999618530273 167,13.399999618530273 c57.599998474121094,-1.899999976158142 69.0999984741211,1.899999976158142 48,17.299999237060547 c-25,15.399999618530273 -23,19.200000762939453 9.600000381469727,19.200000762939453 c34.599998474121094,1.899999976158142 34.599998474121094,3.799999952316284 -7.699999809265137,26.899999618530273 c-25,13.399999618530273 -57.599998474121094,51.79999923706055 -71,86.4000015258789 c-28.799999237060547,71 -94.0999984741211,84.5 -74.9000015258789,17.299999237060547 c9.600000381469727,-38.400001525878906 7.699999809265137,-40.29999923706055 -13.399999618530273,-13.399999618530273 c-15.399999618530273,19.200000762939453 -51.79999923706055,28.799999237060547 -96,28.799999237060547 c-40.29999923706055,-1.899999976158142 -73,3.799999952316284 -73,11.5 C1497.0218505859375,4392.048828124999 1456.721923828125,4388.249023437499 1416.3218994140625,4365.249023437499 z" id="svg_23" fill="#990098" fill-opacity="1"/><path d="M2019.221923828125,4284.550292968749 c-25,-30.700000762939453 -7.699999809265137,-61.400001525878906 46.099998474121094,-78.69999694824219 c49.900001525878906,-15.399999618530273 71,25 36.5,71 C2073.02197265625,4315.249999999999 2046.121826171875,4319.149414062499 2019.221923828125,4284.550292968749 z" id="svg_24" fill="#990098" fill-opacity="1"/><path d="M285.5218811035156,4274.950195312499 c-42.20000076293945,-11.5 -117.0999984741211,-48 -182.39999389648438,-90.19999694824219 c-57.599998474121094,-40.29999923706055 -57.599998474121094,-40.29999923706055 -19.200000762939453,-69.0999984741211 c23,-17.299999237060547 61.400001525878906,-36.5 86.4000015258789,-46.099998474121094 c61.400001525878906,-19.200000762939453 13.399999618530273,-49.900001525878906 -57.599998474121094,-34.599998474121094 c-28.799999237060547,5.800000190734863 -67.19999694824219,0 -88.30000305175781,-11.5 c-32.599998474121094,-19.200000762939453 -32.599998474121094,-19.200000762939453 0,-21.100000381469727 c21.100000381469727,0 28.799999237060547,-7.699999809265137 21.100000381469727,-23 c-9.600000381469727,-15.399999618530273 9.600000381469727,-17.299999237060547 65.30000305175781,-9.600000381469727 c71,7.699999809265137 80.5999984741211,5.800000190734863 80.5999984741211,-26.899999618530273 c0,-19.200000762939453 -13.399999618530273,-38.400001525878906 -28.799999237060547,-38.400001525878906 c-61.400001525878906,-5.800000190734863 -69.0999984741211,-7.699999809265137 -86.4000015258789,-36.5 c-26.899999618530273,-42.20000076293945 -23,-57.599998474121094 15.399999618530273,-57.599998474121094 c25,0 26.899999618530273,-3.799999952316284 5.800000190734863,-17.299999237060547 c-17.299999237060547,-11.5 -19.200000762939453,-21.100000381469727 -3.799999952316284,-28.799999237060547 c11.5,-7.699999809265137 28.799999237060547,-9.600000381469727 38.400001525878906,-1.899999976158142 c11.5,5.800000190734863 25,-1.899999976158142 34.599998474121094,-17.299999237060547 c7.699999809265137,-15.399999618530273 46.099998474121094,-30.700000762939453 82.5999984741211,-34.599998474121094 l67.19999694824219,-5.800000190734863 l-51.79999923706055,-51.79999923706055 c-28.799999237060547,-30.700000762939453 -48,-53.79999923706055 -42.20000076293945,-53.79999923706055 c23,0 161.3000030517578,103.69999694824219 161.3000030517578,121 c0,30.700000762939453 101.80000305175781,107.5 122.9000015258789,94.0999984741211 c13.399999618530273,-7.699999809265137 7.699999809265137,-15.399999618530273 -11.5,-19.200000762939453 c-19.200000762939453,-3.799999952316284 -34.599998474121094,-19.200000762939453 -34.599998474121094,-34.599998474121094 c0,-21.100000381469727 7.699999809265137,-23 36.5,-7.699999809265137 c21.100000381469727,9.600000381469727 40.29999923706055,28.799999237060547 44.20000076293945,38.400001525878906 c7.699999809265137,26.899999618530273 243.8000030517578,-32.599998474121094 289.8999938964844,-72.9000015258789 c25,-23 38.400001525878906,-25 55.70000076293945,-7.699999809265137 c23,23 44.20000076293945,3.799999952316284 122.9000015258789,-103.69999694824219 c19.200000762939453,-26.899999618530273 57.599998474121094,-76.80000305175781 82.5999984741211,-105.5999984741211 c23,-30.700000762939453 40.29999923706055,-69.0999984741211 34.599998474121094,-82.5999984741211 c-5.800000190734863,-15.399999618530273 9.600000381469727,-40.29999923706055 34.599998474121094,-57.599998474121094 c59.5,-40.29999923706055 78.69999694824219,-38.400001525878906 46.099998474121094,1.899999976158142 c-25,28.799999237060547 -23,28.799999237060547 13.399999618530273,9.600000381469727 c48,-25 71,-74.9000015258789 46.099998474121094,-90.19999694824219 c-11.5,-7.699999809265137 -19.200000762939453,-1.899999976158142 -19.200000762939453,7.699999809265137 c0,11.5 -5.800000190734863,21.100000381469727 -13.399999618530273,21.100000381469727 c-9.600000381469727,0 -13.399999618530273,-63.29999923706055 -11.5,-142.10000610351562 c1.899999976158142,-117.0999984741211 13.399999618530273,-159.39999389648438 53.79999923706055,-230.39999389648438 c26.899999618530273,-48 67.19999694824219,-92.19999694824219 90.19999694824219,-99.80000305175781 c21.100000381469727,-5.800000190734863 49.900001525878906,-38.400001525878906 67.19999694824219,-71 c53.79999923706055,-117.0999984741211 84.5,-167 103.69999694824219,-167 c9.600000381469727,0 17.299999237060547,-11.5 17.299999237060547,-25 c0,-15.399999618530273 19.200000762939453,-42.20000076293945 40.29999923706055,-63.400001525878906 c38.400001525878906,-32.599998474121094 -11.5,55.70000076293945 -103.69999694824219,188.1999969482422 c-11.5,17.299999237060547 -15.399999618530273,40.29999923706055 -5.800000190734863,48 c9.600000381469727,7.699999809265137 25,-1.899999976158142 38.400001525878906,-21.100000381469727 c11.5,-19.200000762939453 67.19999694824219,-84.5 121,-144 c57.599998474121094,-61.400001525878906 101.80000305175781,-124.80000305175781 101.80000305175781,-149.8000030517578 c0,-30.700000762939453 26.899999618530273,-53.79999923706055 105.5999984741211,-94.0999984741211 c57.599998474121094,-26.899999618530273 128.60000610351562,-49.900001525878906 157.39999389648438,-49.900001525878906 s76.80000305175781,-17.299999237060547 109.4000015258789,-36.5 c32.599998474121094,-21.100000381469727 74.9000015258789,-36.5 92.19999694824219,-36.5 c17.299999237060547,0 51.79999923706055,-25 76.80000305175781,-55.70000076293945 c61.400001525878906,-74.9000015258789 153.60000610351562,-132.5 165.10000610351562,-101.69999694824219 c9.600000381469727,32.599998474121094 61.400001525878906,28.799999237060547 61.400001525878906,-5.800000190734863 c0,-15.399999618530273 -11.5,-28.799999237060547 -26.899999618530273,-28.799999237060547 c-40.29999923706055,0 -96,-97.9000015258789 -90.19999694824219,-159.3000030517578 c3.799999952316284,-34.599998474121094 -11.5,-73 -46.099998474121094,-113.30000305175781 s-48,-72.9000015258789 -40.29999923706055,-103.69999694824219 c5.800000190734863,-23 1.899999976158142,-46.099998474121094 -9.600000381469727,-49.900001525878906 c-9.600000381469727,-3.799999952316284 17.299999237060547,-74.9000015258789 63.400001525878906,-161.3000030517578 c61.400001525878906,-117.0999984741211 97.9000015258789,-165.10000610351562 149.8000030517578,-192 c53.79999923706055,-28.799999237060547 69.0999984741211,-49.900001525878906 74.9000015258789,-103.69999694824219 c7.699999809265137,-78.69999694824219 -34.599998474121094,-410.8999938964844 -61.400001525878906,-480 c-26.899999618530273,-69.0999984741211 -34.599998474121094,-192 -13.399999618530273,-192 c21.100000381469727,0 13.399999618530273,-117.0999984741211 -9.600000381469727,-153.60000610351562 c-5.800000190734863,-11.5 -21.100000381469727,-13.399999618530273 -32.599998474121094,-7.699999809265137 c-13.399999618530273,7.699999809265137 -15.399999618530273,3.799999952316284 -7.699999809265137,-9.600000381469727 c7.699999809265137,-13.399999618530273 19.200000762939453,-57.599998474121094 25,-101.69999694824219 c3.799999952316284,-42.20000076293945 21.100000381469727,-90.19999694824219 36.5,-105.5999984741211 c30.700000762939453,-30.700000762939453 107.5,-15.399999618530273 99.80000305175781,19.200000762939453 c-3.799999952316284,13.399999618530273 15.399999618530273,51.79999923706055 38.400001525878906,86.4000015258789 c38.400001525878906,51.79999923706055 42.20000076293945,67.19999694824219 21.100000381469727,92.0999984741211 c-21.100000381469727,26.899999618530273 -19.200000762939453,34.599998474121094 9.600000381469727,57.599998474121094 c21.100000381469727,13.399999618530273 36.5,51.79999923706055 38.400001525878906,84.5 c1.899999976158142,40.29999923706055 11.5,57.599998474121094 34.599998474121094,57.599998474121094 c17.299999237060547,0 38.400001525878906,17.299999237060547 44.20000076293945,38.400001525878906 c7.699999809265137,26.899999618530273 28.799999237060547,38.400001525878906 67.19999694824219,38.400001525878906 c73,0 109.4000015258789,59.5 65.30000305175781,105.5999984741211 c-28.799999237060547,28.799999237060547 -26.899999618530273,30.700000762939453 23,23 c57.599998474121094,-7.699999809265137 122.9000015258789,30.700000762939453 122.9000015258789,73 c0,11.5 26.899999618530273,46.099998474121094 57.599998474121094,76.80000305175781 c32.599998474121094,30.700000762939453 57.599998474121094,74.9000015258789 57.599998474121094,99.80000305175781 c0,48 73,105.5999984741211 140.1999969482422,109.4000015258789 c49.900001525878906,1.899999976158142 109.4000015258789,111.4000015258789 119,215 c3.799999952316284,36.5 32.599998474121094,101.80000305175781 63.400001525878906,144 c55.70000076293945,74.9000015258789 63.400001525878906,151.6999969482422 17.299999237060547,151.6999969482422 c-11.5,0 -34.599998474121094,13.399999618530273 -51.79999923706055,28.799999237060547 c-17.299999237060547,15.399999618530273 -67.19999694824219,30.700000762939453 -109.4000015258789,34.599998474121094 c-44.20000076293945,1.899999976158142 -74.9000015258789,9.600000381469727 -71,17.299999237060547 c13.399999618530273,21.100000381469727 -82.5999984741211,40.29999923706055 -109.4000015258789,23 c-15.399999618530273,-7.699999809265137 -17.299999237060547,-5.800000190734863 -9.600000381469727,7.699999809265137 c7.699999809265137,13.399999618530273 1.899999976158142,23 -15.399999618530273,23 c-15.399999618530273,0 -30.700000762939453,-11.5 -36.5,-23 c-3.799999952316284,-13.399999618530273 -15.399999618530273,-19.200000762939453 -25,-9.600000381469727 c-7.699999809265137,7.699999809265137 -1.899999976158142,28.799999237060547 15.399999618530273,46.099998474121094 c25,25 26.899999618530273,38.400001525878906 9.600000381469727,71 c-34.599998474121094,59.5 -74.9000015258789,86.4000015258789 -130.60000610351562,88.30000305175781 c-26.899999618530273,0 -65.30000305175781,17.299999237060547 -84.5,38.400001525878906 c-19.200000762939453,21.100000381469727 -46.099998474121094,38.400001525878906 -59.5,38.400001525878906 c-13.399999618530273,0 -26.899999618530273,9.600000381469727 -30.700000762939453,23 c-3.799999952316284,11.5 -36.5,25 -71,26.899999618530273 c-32.599998474121094,1.899999976158142 -84.5,9.600000381469727 -113.30000305175781,19.200000762939453 c-28.799999237060547,7.699999809265137 -67.19999694824219,11.5 -88.30000305175781,9.600000381469727 c-19.200000762939453,-3.799999952316284 -28.799999237060547,3.799999952316284 -23,13.399999618530273 c19.200000762939453,30.700000762939453 -38.400001525878906,63.29999923706055 -88.30000305175781,51.79999923706055 c-59.5,-15.399999618530273 -111.4000015258789,40.29999923706055 -105.5999984741211,115.19999694824219 c3.799999952316284,53.79999923706055 -1.899999976158142,57.599998474121094 -67.19999694824219,63.29999923706055 l-71,5.800000190734863 l26.899999618530273,86.4000015258789 c23,78.69999694824219 23,84.5 -9.600000381469727,84.5 c-19.200000762939453,0 -48,-21.100000381469727 -65.30000305175781,-48 c-40.29999923706055,-61.400001525878906 -111.4000015258789,-63.29999923706055 -167,-3.799999952316284 c-32.599998474121094,34.599998474121094 -38.400001525878906,57.599998474121094 -28.799999237060547,138.1999969482422 c13.399999618530273,119 67.19999694824219,170.89999389648438 159.39999389648438,157.39999389648438 c36.5,-5.800000190734863 63.400001525878906,-1.899999976158142 63.400001525878906,7.699999809265137 c0,23 149.8000030517578,15.399999618530273 188.1999969482422,-9.600000381469727 c13.399999618530273,-7.699999809265137 19.200000762939453,-21.100000381469727 13.399999618530273,-30.700000762939453 c-5.800000190734863,-7.699999809265137 7.699999809265137,-36.5 28.799999237060547,-59.5 c44.20000076293945,-55.70000076293945 51.79999923706055,-21.100000381469727 15.399999618530273,78.69999694824219 c-21.100000381469727,63.400001525878906 -19.200000762939453,67.19999694824219 61.400001525878906,136.3000030517578 c67.19999694824219,57.599998474121094 80.5999984741211,80.5999984741211 73,121 c-5.800000190734863,28.799999237060547 -5.800000190734863,48 0,42.20000076293945 c11.5,-11.5 61.400001525878906,38.400001525878906 61.400001525878906,61.400001525878906 c0,9.600000381469727 21.100000381469727,25 46.099998474121094,30.700000762939453 c25,5.800000190734863 49.900001525878906,28.799999237060547 55.70000076293945,48 c5.800000190734863,21.100000381469727 42.20000076293945,51.79999923706055 80.5999984741211,67.19999694824219 c90.19999694824219,38.400001525878906 97.9000015258789,38.400001525878906 67.19999694824219,1.899999976158142 c-36.5,-42.20000076293945 -19.200000762939453,-44.20000076293945 57.599998474121094,-5.800000190734863 c53.79999923706055,28.799999237060547 59.5,34.599998474121094 25,34.599998474121094 c-51.79999923706055,0 -113.30000305175781,76.80000305175781 -76.80000305175781,99.80000305175781 c15.399999618530273,9.600000381469727 5.800000190734863,15.399999618530273 -25,15.399999618530273 c-26.899999618530273,0 -71,-13.399999618530273 -96,-30.700000762939453 c-26.899999618530273,-17.299999237060547 -19.200000762939453,-3.799999952316284 19.200000762939453,28.799999237060547 c53.79999923706055,48 82.5999984741211,59.5 157.39999389648438,59.5 c49.900001525878906,0 96,9.600000381469727 101.80000305175781,19.200000762939453 c5.800000190734863,11.5 28.799999237060547,19.200000762939453 48,19.200000762939453 c36.5,0 36.5,-1.899999976158142 0,-67.19999694824219 l-38.400001525878906,-67.19999694824219 h57.599998474121094 c32.599998474121094,0 63.400001525878906,0 69.0999984741211,1.899999976158142 c7.699999809265137,0 21.100000381469727,-9.600000381469727 28.799999237060547,-25 c11.5,-17.299999237060547 17.299999237060547,-17.299999237060547 17.299999237060547,-1.899999976158142 c0,11.5 -9.600000381469727,28.799999237060547 -19.200000762939453,34.599998474121094 c-11.5,7.699999809265137 -15.399999618530273,19.200000762939453 -9.600000381469727,28.799999237060547 c5.800000190734863,7.699999809265137 -7.699999809265137,19.200000762939453 -28.799999237060547,25 c-28.799999237060547,7.699999809265137 -34.599998474121094,23 -30.700000762939453,76.80000305175781 c7.699999809265137,73 -19.200000762939453,97.9000015258789 -78.69999694824219,78.69999694824219 c-25,-7.699999809265137 -26.899999618530273,-5.800000190734863 -9.600000381469727,5.800000190734863 c17.299999237060547,13.399999618530273 9.600000381469727,28.799999237060547 -32.599998474121094,61.400001525878906 c-30.700000762939453,25 -53.79999923706055,53.79999923706055 -48,65.30000305175781 c3.799999952316284,13.399999618530273 -9.600000381469727,44.20000076293945 -30.700000762939453,71 c-36.5,44.20000076293945 -40.29999923706055,46.099998474121094 -59.5,13.399999618530273 c-23,-38.400001525878906 -134.39999389648438,-40.29999923706055 -119,-1.899999976158142 c15.399999618530273,42.20000076293945 -82.5999984741211,124.80000305175781 -157.39999389648438,132.5 c-65.30000305175781,5.800000190734863 -69.0999984741211,1.899999976158142 -65.30000305175781,-44.20000076293945 c3.799999952316284,-28.799999237060547 0,-63.400001525878906 -9.600000381469727,-76.80000305175781 c-9.600000381469727,-15.399999618530273 -1.899999976158142,-40.29999923706055 17.299999237060547,-61.400001525878906 c25,-28.799999237060547 26.899999618530273,-44.20000076293945 9.600000381469727,-74.9000015258789 c-11.5,-23 -28.799999237060547,-40.29999923706055 -40.29999923706055,-40.29999923706055 c-11.5,0 -17.299999237060547,-23 -15.399999618530273,-53.79999923706055 c3.799999952316284,-28.799999237060547 0,-63.400001525878906 -9.600000381469727,-76.80000305175781 c-23,-36.5 -88.30000305175781,26.899999618530273 -88.30000305175781,86.4000015258789 c0,28.799999237060547 -11.5,44.20000076293945 -34.599998474121094,44.20000076293945 c-17.299999237060547,0 -65.30000305175781,17.299999237060547 -105.5999984741211,38.400001525878906 c-38.400001525878906,21.100000381469727 -88.30000305175781,38.400001525878906 -109.4000015258789,38.400001525878906 c-21.100000381469727,0 -38.400001525878906,13.399999618530273 -38.400001525878906,28.799999237060547 c0,17.299999237060547 -13.399999618530273,34.599998474121094 -28.799999237060547,40.29999923706055 c-48,19.200000762939453 -32.599998474121094,96 30.700000762939453,149.8000030517578 c48,40.29999923706055 51.79999923706055,49.900001525878906 23,51.79999923706055 c-19.200000762939453,0 -3.799999952316284,9.600000381469727 32.599998474121094,21.100000381469727 c76.80000305175781,21.100000381469727 121,53.79999923706055 73,53.79999923706055 c-17.299999237060547,0 -38.400001525878906,9.600000381469727 -46.099998474121094,21.100000381469727 c-7.699999809265137,15.399999618530273 0,17.299999237060547 28.799999237060547,7.699999809265137 c28.799999237060547,-7.699999809265137 44.20000076293945,-1.899999976158142 51.79999923706055,19.200000762939453 c7.699999809265137,17.299999237060547 25,26.899999618530273 40.29999923706055,21.100000381469727 c15.399999618530273,-5.800000190734863 21.100000381469727,-1.899999976158142 15.399999618530273,9.600000381469727 c-7.699999809265137,11.5 5.800000190734863,13.399999618530273 36.5,5.800000190734863 c53.79999923706055,-13.399999618530273 69.0999984741211,23 26.899999618530273,65.30000305175781 c-17.299999237060547,17.299999237060547 -17.299999237060547,23 3.799999952316284,23 c21.100000381469727,1.899999976158142 19.200000762939453,9.600000381469727 -7.699999809265137,28.799999237060547 c-48,36.5 -76.80000305175781,36.5 -61.400001525878906,0 c5.800000190734863,-15.399999618530273 1.899999976158142,-28.799999237060547 -7.699999809265137,-28.799999237060547 s-23,-17.299999237060547 -28.799999237060547,-40.29999923706055 c-13.399999618530273,-42.20000076293945 -55.70000076293945,-40.29999923706055 -59.5,3.799999952316284 c-1.899999976158142,15.399999618530273 -3.799999952316284,34.599998474121094 -5.800000190734863,44.20000076293945 c0,9.600000381469727 -15.399999618530273,5.800000190734863 -30.700000762939453,-7.699999809265137 c-23,-19.200000762939453 -28.799999237060547,-19.200000762939453 -28.799999237060547,7.699999809265137 c0,48 -44.20000076293945,36.5 -99.80000305175781,-26.899999618530273 c-46.099998474121094,-53.79999923706055 -53.79999923706055,-55.70000076293945 -71,-25 c-11.5,19.200000762939453 -21.100000381469727,25 -21.100000381469727,15.399999618530273 c0,-21.100000381469727 -155.5,-23 -190.10000610351562,-1.899999976158142 c-34.599998474121094,21.100000381469727 -101.80000305175781,-7.699999809265137 -90.19999694824219,-38.400001525878906 c5.800000190734863,-15.399999618530273 1.899999976158142,-26.899999618530273 -5.800000190734863,-26.899999618530273 c-9.600000381469727,0 -21.100000381469727,11.5 -26.899999618530273,25 c-3.799999952316284,13.399999618530273 -40.29999923706055,23 -86.4000015258789,23 c-44.20000076293945,0 -80.5999984741211,7.699999809265137 -78.69999694824219,19.200000762939453 c0,25 -165.10000610351562,71 -261.1000061035156,73 c-42.20000076293945,0 -82.5999984741211,7.699999809265137 -88.30000305175781,17.299999237060547 c-5.800000190734863,7.699999809265137 -46.099998474121094,-1.899999976158142 -90.19999694824219,-23 c-94.0999984741211,-46.099998474121094 -124.80000305175781,-48 -71,-7.699999809265137 c36.5,28.799999237060547 36.5,28.799999237060547 -19.200000762939453,15.399999618530273 c-30.700000762939453,-7.699999809265137 -61.400001525878906,-21.100000381469727 -67.19999694824219,-28.799999237060547 c-11.5,-15.399999618530273 -159.39999389648438,21.100000381469727 -184.3000030517578,46.099998474121094 c-7.699999809265137,7.699999809265137 -44.20000076293945,13.399999618530273 -82.5999984741211,13.399999618530273 c-38.400001525878906,1.899999976158142 -126.69999694824219,11.5 -195.8000030517578,25 C370.0218811035156,4271.150390624999 300.8218688964844,4278.850585937499 285.5218811035156,4274.950195312499 zM2572.221923828125,1986.363525390624 c0,-9.600000381469727 -3.799999952316284,-19.200000762939453 -7.699999809265137,-19.200000762939453 c-5.800000190734863,0 -15.399999618530273,9.600000381469727 -21.100000381469727,19.200000762939453 c-5.800000190734863,11.5 -1.899999976158142,19.200000762939453 7.699999809265137,19.200000762939453 C2562.621826171875,2005.563720703124 2572.221923828125,1997.863525390624 2572.221923828125,1986.363525390624 z" id="svg_25" fill="#990098" fill-opacity="1"/><path d="M3820.121826171875,4232.750976562499 c-25,-15.399999618530273 -23,-19.200000762939453 5.800000190734863,-19.200000762939453 c17.299999237060547,0 30.700000762939453,-5.800000190734863 30.700000762939453,-13.399999618530273 c-11.5,-71 67.19999694824219,-96 165.10000610351562,-55.70000076293945 c74.9000015258789,32.599998474121094 80.5999984741211,44.20000076293945 34.599998474121094,78.69999694824219 c-21.100000381469727,15.399999618530273 -51.79999923706055,19.200000762939453 -84.5,9.600000381469727 c-28.799999237060547,-9.600000381469727 -57.599998474121094,-11.5 -63.400001525878906,-3.799999952316284 c-5.800000190734863,5.800000190734863 -11.5,-1.899999976158142 -11.5,-15.399999618530273 c0,-19.200000762939453 -7.699999809265137,-17.299999237060547 -23,5.800000190734863 C3856.621826171875,4242.350585937499 3841.32177734375,4246.150390624999 3820.121826171875,4232.750976562499 z" id="svg_26" fill="#990098" fill-opacity="1"/><path d="M1950.121826171875,4200.051269531249 c-5.800000190734863,-5.800000190734863 -5.800000190734863,-19.200000762939453 0,-26.899999618530273 c13.399999618530273,-23 65.30000305175781,-21.100000381469727 65.30000305175781,0 C2015.421875,4194.351562499999 1965.52197265625,4215.451171874999 1950.121826171875,4200.051269531249 z" id="svg_27" fill="#990098" fill-opacity="1"/><path d="M2553.02197265625,4106.052734374999 c0,-15.399999618530273 9.600000381469727,-23 19.200000762939453,-17.299999237060547 c11.5,5.800000190734863 19.200000762939453,19.200000762939453 19.200000762939453,30.700000762939453 c0,9.600000381469727 -7.699999809265137,17.299999237060547 -19.200000762939453,17.299999237060547 C2562.621826171875,4136.752441406249 2553.02197265625,4123.252441406249 2553.02197265625,4106.052734374999 z" id="svg_28" fill="#990098" fill-opacity="1"/><path d="M2299.52197265625,3975.454589843749 c-9.600000381469727,-49.900001525878906 30.700000762939453,-84.5 53.79999923706055,-48 c5.800000190734863,11.5 23,15.399999618530273 38.400001525878906,9.600000381469727 c15.399999618530273,-5.800000190734863 26.899999618530273,-1.899999976158142 26.899999618530273,7.699999809265137 s-19.200000762939453,23 -42.20000076293945,30.700000762939453 c-25,7.699999809265137 -49.900001525878906,21.100000381469727 -55.70000076293945,30.700000762939453 C2313.02197265625,4017.653808593749 2303.421875,4002.354248046874 2299.52197265625,3975.454589843749 z" id="svg_29" fill="#990098" fill-opacity="1"/><path d="M4328.921875,3887.155761718749 c-17.299999237060547,-26.899999618530273 9.600000381469727,-136.3000030517578 28.799999237060547,-124.80000305175781 c30.700000762939453,19.200000762939453 38.400001525878906,-51.79999923706055 7.699999809265137,-80.5999984741211 c-21.100000381469727,-23 -23,-34.599998474121094 -7.699999809265137,-44.20000076293945 c17.299999237060547,-11.5 17.299999237060547,-17.299999237060547 -1.899999976158142,-25 c-15.399999618530273,-5.800000190734863 0,-11.5 34.599998474121094,-11.5 c71,-1.899999976158142 130.60000610351562,46.099998474121094 101.80000305175781,80.5999984741211 c-82.5999984741211,97.9000015258789 -97.9000015258789,122.9000015258789 -90.19999694824219,151.6999969482422 c5.800000190734863,21.100000381469727 0,34.599998474121094 -19.200000762939453,34.599998474121094 c-15.399999618530273,0 -21.100000381469727,9.600000381469727 -15.399999618530273,19.200000762939453 c5.800000190734863,11.5 3.799999952316284,19.200000762939453 -7.699999809265137,19.200000762939453 C4350.1220703125,3906.355468749999 4334.7216796875,3896.755615234374 4328.921875,3887.155761718749 z" id="svg_30" fill="#990098" fill-opacity="1"/><path d="M4242.52197265625,3752.757812499999 c0,-9.600000381469727 -11.5,-19.200000762939453 -23,-19.200000762939453 c-13.399999618530273,0 -25,-21.100000381469727 -25,-48 c0,-51.79999923706055 13.399999618530273,-57.599998474121094 69.0999984741211,-28.799999237060547 c44.20000076293945,25 49.900001525878906,115.19999694824219 7.699999809265137,115.19999694824219 C4256.02197265625,3771.957519531249 4242.52197265625,3764.257568359374 4242.52197265625,3752.757812499999 z" id="svg_31" fill="#990098" fill-opacity="1"/><path d="M8454.921875,3608.759765624999 c1.899999976158142,-65.30000305175781 7.699999809265137,-78.69999694824219 23,-61.400001525878906 c23,23 13.399999618530273,147.8000030517578 -11.5,147.8000030517578 C8458.822265625,3695.158447265624 8454.921875,3656.759033203124 8454.921875,3608.759765624999 z" id="svg_32" fill="#990098" fill-opacity="1"/><path d="M8447.2216796875,3472.461669921874 c0,-15.399999618530273 9.600000381469727,-23 19.200000762939453,-17.299999237060547 c11.5,7.699999809265137 15.399999618530273,21.100000381469727 9.600000381469727,30.700000762939453 C8458.822265625,3512.761230468749 8447.2216796875,3506.961181640624 8447.2216796875,3472.461669921874 z" id="svg_33" fill="#990098" fill-opacity="1"/><path d="M8433.822265625,3357.263183593749 c-19.200000762939453,-40.29999923706055 -17.299999237060547,-46.099998474121094 19.200000762939453,-46.099998474121094 c42.20000076293945,0 107.5,30.700000762939453 90.19999694824219,42.20000076293945 C8468.421875,3401.362548828124 8454.921875,3401.362548828124 8433.822265625,3357.263183593749 z" id="svg_34" fill="#990098" fill-opacity="1"/><path d="M4703.32177734375,3222.865234374999 c0,-15.399999618530273 9.600000381469727,-23 19.200000762939453,-17.299999237060547 c11.5,5.800000190734863 19.200000762939453,19.200000762939453 19.200000762939453,30.700000762939453 c0,9.600000381469727 -7.699999809265137,17.299999237060547 -19.200000762939453,17.299999237060547 C4712.921875,3253.564697265624 4703.32177734375,3240.164794921874 4703.32177734375,3222.865234374999 z" id="svg_35" fill="#990098" fill-opacity="1"/><path d="M8401.1220703125,3205.565429687499 c-7.699999809265137,-26.899999618530273 -34.599998474121094,-59.5 -59.5,-71 c-26.899999618530273,-11.5 -48,-28.799999237060547 -48,-38.400001525878906 c0,-7.699999809265137 -25,-15.399999618530273 -55.70000076293945,-15.399999618530273 c-32.599998474121094,0 -63.400001525878906,-9.600000381469727 -71,-21.100000381469727 c-7.699999809265137,-15.399999618530273 5.800000190734863,-17.299999237060547 49.900001525878906,-7.699999809265137 c48,9.600000381469727 59.5,7.699999809265137 48,-9.600000381469727 c-7.699999809265137,-13.399999618530273 -7.699999809265137,-21.100000381469727 1.899999976158142,-15.399999618530273 c9.600000381469727,3.799999952316284 44.20000076293945,19.200000762939453 78.69999694824219,32.599998474121094 c57.599998474121094,23 101.80000305175781,96 101.80000305175781,167 C8447.2216796875,3272.764404296874 8412.7216796875,3255.464599609374 8401.1220703125,3205.565429687499 z" id="svg_36" fill="#990098" fill-opacity="1"/><path d="M4837.7216796875,3149.866210937499 c0,-3.799999952316284 13.399999618530273,-11.5 28.799999237060547,-19.200000762939453 c15.399999618530273,-5.800000190734863 28.799999237060547,-1.899999976158142 28.799999237060547,7.699999809265137 c0,11.5 -13.399999618530273,19.200000762939453 -28.799999237060547,19.200000762939453 S4837.7216796875,3153.766113281249 4837.7216796875,3149.866210937499 z" id="svg_37" fill="#990098" fill-opacity="1"/><path d="M8197.7216796875,3023.166992187499 c-17.299999237060547,-11.5 -19.200000762939453,-19.200000762939453 -5.800000190734863,-19.200000762939453 c11.5,0 28.799999237060547,9.600000381469727 34.599998474121094,19.200000762939453 C8241.822265625,3046.166992187499 8234.1220703125,3046.166992187499 8197.7216796875,3023.166992187499 z" id="svg_38" fill="#990098" fill-opacity="1"/><path d="M8128.521484375,2994.366943359374 c7.699999809265137,-46.099998474121094 30.700000762939453,-57.599998474121094 30.700000762939453,-13.399999618530273 c0,23 -7.699999809265137,42.20000076293945 -17.299999237060547,42.20000076293945 C8132.421875,3023.166992187499 8126.6220703125,3009.767089843749 8128.521484375,2994.366943359374 z" id="svg_39" fill="#990098" fill-opacity="1"/><path d="M7844.421875,2725.565917968749 c-5.800000190734863,-15.399999618530273 -1.899999976158142,-28.799999237060547 7.699999809265137,-28.799999237060547 c11.5,0 19.200000762939453,13.399999618530273 19.200000762939453,28.799999237060547 s-3.799999952316284,28.799999237060547 -7.699999809265137,28.799999237060547 C7859.7216796875,2754.366210937499 7852.02197265625,2740.966064453124 7844.421875,2725.565917968749 z" id="svg_40" fill="#990098" fill-opacity="1"/><path d="M7525.7216796875,2581.565429687499 c0,-9.600000381469727 9.600000381469727,-19.200000762939453 19.200000762939453,-19.200000762939453 c11.5,0 19.200000762939453,9.600000381469727 19.200000762939453,19.200000762939453 c0,11.5 -7.699999809265137,19.200000762939453 -19.200000762939453,19.200000762939453 C7535.32177734375,2600.765624999999 7525.7216796875,2593.065429687499 7525.7216796875,2581.565429687499 z" id="svg_41" fill="#990098" fill-opacity="1"/><path d="M7846.32177734375,2520.165527343749 c-7.699999809265137,-23 -7.699999809265137,-46.099998474121094 -1.899999976158142,-51.79999923706055 c11.5,-13.399999618530273 46.099998474121094,38.400001525878906 46.099998474121094,71 C7890.421875,2579.665527343749 7857.82177734375,2564.265624999999 7846.32177734375,2520.165527343749 z" id="svg_42" fill="#990098" fill-opacity="1"/><path d="M2451.221923828125,2460.665039062499 c32.599998474121094,-13.399999618530273 67.19999694824219,-28.799999237060547 74.9000015258789,-36.5 c7.699999809265137,-9.600000381469727 26.899999618530273,-15.399999618530273 44.20000076293945,-15.399999618530273 c17.299999237060547,1.899999976158142 0,17.299999237060547 -36.5,38.400001525878906 c-36.5,21.100000381469727 -84.5,36.5 -105.5999984741211,36.5 C2401.32177734375,2483.665283203124 2409.02197265625,2475.965332031249 2451.221923828125,2460.665039062499 z" id="svg_43" fill="#990098" fill-opacity="1"/><path d="M2668.221923828125,2370.364746093749 c0,-9.600000381469727 17.299999237060547,-19.200000762939453 38.400001525878906,-19.200000762939453 c21.100000381469727,0 38.400001525878906,9.600000381469727 38.400001525878906,19.200000762939453 c0,11.5 -17.299999237060547,19.200000762939453 -38.400001525878906,19.200000762939453 C2685.421875,2389.564941406249 2668.221923828125,2381.864990234374 2668.221923828125,2370.364746093749 z" id="svg_44" fill="#990098" fill-opacity="1"/><path d="M6719.32177734375,2270.564453124999 c0,-30.700000762939453 9.600000381469727,-53.79999923706055 19.200000762939453,-53.79999923706055 c25,0 25,38.400001525878906 0,76.80000305175781 C6723.1220703125,2316.664550781249 6719.32177734375,2310.864746093749 6719.32177734375,2270.564453124999 z" id="svg_45" fill="#990098" fill-opacity="1"/><path d="M7955.7216796875,2283.964599609374 c-34.599998474121094,-17.299999237060547 -36.5,-23 -13.399999618530273,-46.099998474121094 c32.599998474121094,-28.799999237060547 71,-3.799999952316284 59.5,40.29999923706055 C7998.02197265625,2299.364746093749 7986.52197265625,2301.264648437499 7955.7216796875,2283.964599609374 z" id="svg_46" fill="#990098" fill-opacity="1"/><path d="M7715.7216796875,2201.464355468749 c-15.399999618530273,-17.299999237060547 -59.5,-55.70000076293945 -96,-86.4000015258789 l-65.30000305175781,-51.79999923706055 l57.599998474121094,11.5 c32.599998474121094,5.800000190734863 69.0999984741211,28.799999237060547 84.5,48 c13.399999618530273,21.100000381469727 42.20000076293945,36.5 61.400001525878906,36.5 c42.20000076293945,0 48,25 11.5,53.79999923706055 C7750.32177734375,2228.264404296874 7736.921875,2226.364257812499 7715.7216796875,2201.464355468749 z" id="svg_47" fill="#990098" fill-opacity="1"/><path d="M7487.32177734375,1961.4635009765616 c17.299999237060547,-13.399999618530273 55.70000076293945,-57.599998474121094 86.4000015258789,-99.80000305175781 c71,-97.9000015258789 147.8000030517578,-182.39999389648438 165.10000610351562,-182.39999389648438 c7.699999809265137,0 17.299999237060547,17.299999237060547 23,38.400001525878906 c5.800000190734863,21.100000381469727 1.899999976158142,38.400001525878906 -7.699999809265137,38.400001525878906 c-9.600000381469727,0 -26.899999618530273,19.200000762939453 -38.400001525878906,44.20000076293945 c-23,49.900001525878906 -193.89999389648438,186.1999969482422 -232.3000030517578,186.1999969482422 C7464.2216796875,1984.463623046874 7466.1220703125,1978.663574218749 7487.32177734375,1961.4635009765616 z" id="svg_48" fill="#990098" fill-opacity="1"/><path d="M8034.421875,1911.4635009765616 c-11.5,-38.400001525878906 -55.70000076293945,-51.79999923706055 -147.8000030517578,-44.20000076293945 c-40.29999923706055,3.799999952316284 -40.29999923706055,1.899999976158142 -11.5,-63.29999923706055 c19.200000762939453,-44.20000076293945 40.29999923706055,-57.599998474121094 80.5999984741211,-49.900001525878906 c7.699999809265137,1.899999976158142 26.899999618530273,-5.800000190734863 40.29999923706055,-17.299999237060547 c34.599998474121094,-28.799999237060547 88.30000305175781,51.79999923706055 94.0999984741211,136.3000030517578 C8092.021484375,1942.263427734374 8053.6220703125,1969.063476562499 8034.421875,1911.4635009765616 z" id="svg_49" fill="#990098" fill-opacity="1"/><path d="M8142.021484375,1777.063476562499 c0,-17.299999237060547 7.699999809265137,-48 17.299999237060547,-69.0999984741211 c15.399999618530273,-34.599998474121094 17.299999237060547,-34.599998474121094 19.200000762939453,9.600000381469727 c1.899999976158142,26.899999618530273 7.699999809265137,36.5 13.399999618530273,25 c15.399999618530273,-40.29999923706055 34.599998474121094,-28.799999237060547 34.599998474121094,19.200000762939453 c0,30.700000762939453 -11.5,42.20000076293945 -42.20000076293945,44.20000076293945 C8153.521484375,1807.863525390624 8140.1220703125,1798.263427734374 8142.021484375,1777.063476562499 z" id="svg_50" fill="#990098" fill-opacity="1"/><path d="M8495.322265625,1794.363525390624 c5.699999809265137,-9.600000381469727 24.899999618530273,-19.200000762939453 40.29999923706055,-19.200000762939453 s26.899999618530273,9.600000381469727 26.899999618530273,19.200000762939453 c0,11.5 -17.299999237060547,19.200000762939453 -40.29999923706055,19.200000762939453 C8501.021484375,1813.563476562499 8489.521484375,1805.863525390624 8495.322265625,1794.363525390624 z" id="svg_51" fill="#990098" fill-opacity="1"/><path d="M8629.6220703125,1767.4635009765616 c-19.200000762939453,-13.399999618530273 -51.900001525878906,-21.100000381469727 -71.0999984741211,-15.399999618530273 c-19.200000762939453,3.799999952316284 -34.599998474121094,0 -34.599998474121094,-9.600000381469727 s17.299999237060547,-17.299999237060547 40.29999923706055,-19.200000762939453 c59.5,-5.800000190734863 136.3000030517578,-61.400001525878906 124.80000305175781,-92.19999694824219 c-13.399999618530273,-38.400001525878906 90.19999694824219,-57.599998474121094 140.1999969482422,-25 c32.599998474121094,21.100000381469727 46.099998474121094,17.299999237060547 86.4000015258789,-21.100000381469727 c78.69999694824219,-74.9000015258789 90.19999694824219,-36.5 15.399999618530273,51.79999923706055 C8842.822265625,1738.663574218749 8683.421875,1807.863525390624 8629.6220703125,1767.4635009765616 z" id="svg_52" fill="#990098" fill-opacity="1"/><path d="M9013.6220703125,1679.163574218749 c-30.700000762939453,-13.399999618530273 -32.599998474121094,-17.299999237060547 -5.800000190734863,-17.299999237060547 c17.299999237060547,-1.899999976158142 38.400001525878906,7.699999809265137 44.20000076293945,17.299999237060547 C9065.521484375,1700.263427734374 9065.521484375,1700.263427734374 9013.6220703125,1679.163574218749 z" id="svg_53" fill="#990098" fill-opacity="1"/><path d="M5809.2216796875,1631.163574218749 c-17.299999237060547,-26.899999618530273 -44.20000076293945,-48 -59.5,-48 c-28.799999237060547,0 -36.5,-19.200000762939453 -28.799999237060547,-82.5 c1.899999976158142,-19.200000762939453 -5.699999809265137,-46.099998474121094 -15.399999618530273,-57.599998474121094 c-11.5,-13.399999618530273 -15.399999618530273,-48 -9.600000381469727,-76.80000305175781 c7.699999809265137,-42.20000076293945 19.200000762939453,-51.79999923706055 51.79999923706055,-48 c30.700000762939453,3.799999952316284 48,32.599998474121094 74.9000015258789,111.4000015258789 C5889.921875,1638.863525390624 5884.1220703125,1744.4635009765616 5809.2216796875,1631.163574218749 z" id="svg_54" fill="#990098" fill-opacity="1"/><path d="M7784.921875,1642.663574218749 c11.5,-9.600000381469727 63.400001525878906,-23 115.19999694824219,-30.700000762939453 c119,-15.399999618530273 76.80000305175781,17.299999237060547 -48,36.5 C7796.421875,1658.063476562499 7773.32177734375,1656.163574218749 7784.921875,1642.663574218749 z" id="svg_55" fill="#990098" fill-opacity="1"/><path d="M8487.6220703125,1483.363769531249 c-23,-7.699999809265137 -46.099998474121094,-28.799999237060547 -51.79999923706055,-44.20000076293945 c-9.600000381469727,-23 -26.899999618530273,-26.899999618530273 -65.30000305175781,-19.200000762939453 c-42.20000076293945,9.600000381469727 -61.400001525878906,1.899999976158142 -94.0999984741211,-40.29999923706055 c-21.100000381469727,-28.799999237060547 -40.29999923706055,-44.20000076293945 -40.29999923706055,-34.599998474121094 c-1.899999976158142,9.600000381469727 -13.399999618530273,-3.799999952316284 -26.899999618530273,-30.700000762939453 c-15.399999618530273,-26.899999618530273 -59.5,-59.5 -101.80000305175781,-74.9000015258789 c-84.5,-30.700000762939453 -140.10000610351562,-72.9000015258789 -140.10000610351562,-111.30000305175781 c0,-13.399999618530273 17.299999237060547,-74.9000015258789 38.400001525878906,-134.39999389648438 c21.100000381469727,-61.400001525878906 38.400001525878906,-130.5 38.400001525878906,-153.60000610351562 c0,-34.599998474121094 11.5,-44.20000076293945 46.099998474121094,-44.20000076293945 c26.899999618530273,0 53.79999923706055,9.600000381469727 59.5,19.200000762939453 c5.800000190734863,11.5 36.5,19.200000762939453 69.0999984741211,19.200000762939453 c30.700000762939453,0 55.70000076293945,7.699999809265137 55.70000076293945,17.299999237060547 c0,7.699999809265137 38.400001525878906,30.700000762939453 86.4000015258789,48 c105.5999984741211,40.29999923706055 186.3000030517578,26.899999618530273 220.8000030517578,-36.5 l25,-46.099998474121094 l36.5,42.20000076293945 c26.899999618530273,30.700000762939453 34.599998474121094,32.599998474121094 26.899999618530273,9.600000381469727 c-3.799999952316284,-17.299999237060547 3.799999952316284,-42.20000076293945 19.200000762939453,-53.79999923706055 c15.399999618530273,-13.399999618530273 26.899999618530273,-34.599998474121094 26.899999618530273,-48 c0,-38.400001525878906 44.20000076293945,-65.30000305175781 122.9000015258789,-74.9000015258789 c105.5999984741211,-13.399999618530273 136.3000030517578,5.800000190734863 201.60000610351562,126.69999694824219 c103.69999694824219,197.8000030517578 90.19999694824219,261.1000061035156 -92.19999694824219,447.3999938964844 c-21.100000381469727,21.100000381469727 -44.20000076293945,63.29999923706055 -51.79999923706055,92.0999984741211 c-5.800000190734863,30.700000762939453 -25,59.5 -38.400001525878906,65.30000305175781 c-15.399999618530273,5.800000190734863 -26.899999618530273,21.100000381469727 -26.899999618530273,34.599998474121094 c0,65.30000305175781 -38.400001525878906,42.20000076293945 -49.900001525878906,-28.799999237060547 c-7.699999809265137,-42.20000076293945 -21.100000381469727,-82.5999984741211 -28.799999237060547,-88.30000305175781 c-19.200000762939453,-11.5 -151.6999969482422,63.400001525878906 -151.6999969482422,86.4000015258789 c0,7.699999809265137 9.600000381469727,23 21.100000381469727,34.599998474121094 C8648.822265625,1489.1636962890616 8545.2216796875,1506.3636474609366 8487.6220703125,1483.363769531249 z" id="svg_56" fill="#990098" fill-opacity="1"/><path d="M9706.7216796875,709.5664062499991 c-5.800000190734863,-15.399999618530273 -3.799999952316284,-48 5.800000190734863,-69.0999984741211 c13.399999618530273,-40.29999923706055 17.299999237060547,-40.29999923706055 59.5,21.100000381469727 c24.899999618530273,36.5 34.599998474121094,57.599998474121094 23,49.900001525878906 c-13.399999618530273,-7.699999809265137 -36.5,-5.800000190734863 -49.900001525878906,5.800000190734863 C9725.921875,734.5662841796866 9716.322265625,732.6662597656241 9706.7216796875,709.5664062499991 z" id="svg_57" fill="#990098" fill-opacity="1"/><path d="M8873.521484375,579.0668334960928 c3.799999952316284,-23 21.100000381469727,-44.20000076293945 40.29999923706055,-48 c48,-9.600000381469727 42.20000076293945,65.30000305175781 -7.699999809265137,78.69999694824219 C8875.421875,617.4666748046866 8867.7216796875,611.6666870117178 8873.521484375,579.0668334960928 z" id="svg_58" fill="#990098" fill-opacity="1"/><path d="M9566.6220703125,534.8670654296866 c-46.099998474121094,-44.20000076293945 -82.5999984741211,-84.5 -82.5999984741211,-92.0999984741211 c0,-5.800000190734863 21.100000381469727,-11.5 48,-11.5 c26.899999618530273,0 48,7.699999809265137 48,17.299999237060547 s23,46.099998474121094 49.900001525878906,78.69999694824219 C9706.7216796875,617.4666748046866 9658.7216796875,625.1666259765616 9566.6220703125,534.8670654296866 z" id="svg_59" fill="#990098" fill-opacity="1"/></g></g></g></svg>