<svg version="1.1" xmlns="http://www.w3.org/2000/svg" xmlns:xlink="http://www.w3.org/1999/xlink" enable-background="new 0 0 1000 1000" xml:space="preserve" width="409" height="508" style=""><rect id="backgroundrect" width="100%" height="100%" x="0" y="0" fill="none" stroke="none" style="" class=""/>
<metadata> Svg Vector Icons : http://www.onlinewebfonts.com/icon </metadata>

<g class="currentLayer" style=""><title>Layer 1</title><path d="M329.2121887207031,2.6752853393554688 c-1.9200000762939453,1.9200000762939453 -4.220000267028809,3.6500000953674316 -5.179999828338623,3.6500000953674316 c-0.7699999809265137,0.1899999976158142 -2.1100001335144043,0.3799999952316284 -2.879999876022339,0.5800000429153442 c-0.9600000381469727,0.1899999976158142 -0.1899999976158142,1.149999976158142 1.340000033378601,2.299999952316284 c2.299999952316284,1.7299998998641968 2.1100001335144043,1.9200000762939453 -1.340000033378601,1.149999976158142 c-2.5,-0.5800000429153442 -4.420000076293945,-0.1899999976158142 -4.420000076293945,0.5800000429153442 c0,0.7699999809265137 -1.7299998998641968,1.149999976158142 -3.8400001525878906,0.5800000429153442 c-2.299999952316284,-0.5800000429153442 -5.570000171661377,0.3799999952316284 -7.490000247955322,2.1100001335144043 c-3.070000171661377,2.879999876022339 -4.800000190734863,3.070000171661377 -11.710000038146973,1.149999976158142 c-8.640000343322754,-2.299999952316284 -36.47999954223633,-3.6500000953674316 -36.47999954223633,-1.7299998998641968 c0,0.5800000429153442 -2.1100001335144043,0.7699999809265137 -4.800000190734863,0.1899999976158142 c-5.950000286102295,-0.9600000381469727 -12.480000495910645,1.149999976158142 -9.019999504089355,3.070000171661377 c1.149999976158142,0.9600000381469727 -3.8400001525878906,1.5399999618530273 -11.330000877380371,1.5399999618530273 c-7.300000190734863,0.1899999976158142 -14.40000057220459,1.149999976158142 -15.739999771118164,2.5 c-1.5399999618530273,1.5399999618530273 -1.340000033378601,2.1100001335144043 1.149999976158142,2.1100001335144043 c1.7299998998641968,0 3.259999990463257,0.7699999809265137 3.259999990463257,1.9200000762939453 c0,1.149999976158142 1.9200000762939453,0.9600000381469727 4.990000247955322,-0.3799999952316284 c3.259999990463257,-1.5399999618530273 5.380000114440918,-1.7299998998641968 6.140000343322754,-0.1899999976158142 c2.1100001335144043,3.070000171661377 6.71999979019165,4.03000020980835 11.330000877380371,2.299999952316284 c2.5,-0.9600000381469727 5.950000286102295,-0.9600000381469727 7.680000305175781,-0.1899999976158142 c2.690000057220459,0.9600000381469727 2.299999952316284,1.5399999618530273 -2.299999952316284,2.299999952316284 c-3.070000171661377,0.5800000429153442 -5.570000171661377,2.1100001335144043 -5.179999828338623,3.4599997997283936 c0.3799999952316284,2.690000057220459 0.9600000381469727,2.690000057220459 -6.909999847412109,0.5800000429153442 c-7.300000190734863,-2.1100001335144043 -8.0600004196167,0 -1.340000033378601,3.6500000953674316 c6.53000020980835,3.4599997997283936 6.140000343322754,5.179999828338623 -0.9600000381469727,4.220000267028809 c-7.099999904632568,-0.9600000381469727 -7.300000190734863,1.5399999618530273 -0.3799999952316284,5.950000286102295 c3.8400001525878906,2.690000057220459 4.220000267028809,3.259999990463257 1.340000033378601,2.690000057220459 c-2.1100001335144043,-0.5800000429153442 -5.570000171661377,-1.5399999618530273 -7.490000247955322,-2.5 c-2.5,-0.9600000381469727 -3.259999990463257,-0.7699999809265137 -2.5,0.5800000429153442 c0.7699999809265137,1.149999976158142 -0.1899999976158142,2.879999876022339 -2.1100001335144043,3.6500000953674316 c-2.1100001335144043,0.9600000381469727 1.149999976158142,1.9200000762939453 10.180000305175781,2.690000057220459 c16.130001068115234,1.340000033378601 20.93000030517578,0.3799999952316284 13.25,-3.070000171661377 l-5.570000171661377,-2.299999952316284 l5.380000114440918,-0.1899999976158142 c2.879999876022339,-0.1899999976158142 5.179999828338623,-1.149999976158142 5.179999828338623,-2.299999952316284 c0,-0.9600000381469727 0.7699999809265137,-1.5399999618530273 1.7299998998641968,-0.9600000381469727 c0.7699999809265137,0.5800000429153442 3.070000171661377,-0.5800000429153442 4.990000247955322,-2.690000057220459 c3.070000171661377,-3.4599997997283936 3.070000171661377,-3.8400001525878906 0.3799999952316284,-3.8400001525878906 c-1.9200000762939453,0 -3.259999990463257,-0.9600000381469727 -3.259999990463257,-2.1100001335144043 c0,-1.149999976158142 1.7299998998641968,-1.7299998998641968 3.8400001525878906,-1.149999976158142 c2.1100001335144043,0.5800000429153442 3.8400001525878906,0.1899999976158142 3.8400001525878906,-0.7699999809265137 s2.1100001335144043,-1.7299998998641968 4.800000190734863,-1.7299998998641968 c2.690000057220459,0 4.800000190734863,-0.7699999809265137 4.800000190734863,-1.5399999618530273 c0,-0.7699999809265137 2.879999876022339,-2.5 6.340000152587891,-3.8400001525878906 c4.800000190734863,-1.9200000762939453 5.570000171661377,-2.690000057220459 3.259999990463257,-4.220000267028809 c-3.6500000953674316,-2.299999952316284 -2.5,-3.070000171661377 6.909999847412109,-4.220000267028809 c7.099999904632568,-0.9600000381469727 7.869999885559082,-0.7699999809265137 7.680000305175781,2.879999876022339 c-0.1899999976158142,3.070000171661377 -2.1100001335144043,4.610000133514404 -7.300000190734863,5.759999752044678 c-8.260000228881836,1.9200000762939453 -9.220000267028809,4.420000076293945 -2.879999876022339,7.099999904632568 c4.03000020980835,1.5399999618530273 4.03000020980835,1.7299998998641968 0.1899999976158142,1.7299998998641968 c-2.1100001335144043,0.1899999976158142 -4.03000020980835,1.5399999618530273 -4.03000020980835,3.070000171661377 c0,2.1100001335144043 2.1100001335144043,2.879999876022339 7.300000190734863,2.879999876022339 c4.03000020980835,0 8.640000343322754,1.340000033378601 10.369999885559082,3.070000171661377 c4.610000133514404,4.800000190734863 8.449999809265137,15.360000610351562 7.099999904632568,20.350000381469727 c-0.7699999809265137,3.6500000953674316 -0.5800000429153442,4.03000020980835 1.7299998998641968,2.1100001335144043 c2.1100001335144043,-1.7299998998641968 3.4599997997283936,-1.5399999618530273 6.140000343322754,0.1899999976158142 c4.610000133514404,3.6500000953674316 4.03000020980835,5.570000171661377 -1.340000033378601,4.220000267028809 c-3.070000171661377,-0.7699999809265137 -4.990000247955322,-0.1899999976158142 -5.570000171661377,1.5399999618530273 c-1.340000033378601,3.259999990463257 0.1899999976158142,4.990000247955322 4.03000020980835,4.990000247955322 c2.1100001335144043,0 2.299999952316284,-0.5800000429153442 0.5800000429153442,-2.690000057220459 c-1.9200000762939453,-2.299999952316284 -1.5399999618530273,-2.5 1.5399999618530273,-1.7299998998641968 c4.420000076293945,1.149999976158142 5.570000171661377,8.260000228881836 1.7299998998641968,8.260000228881836 c-1.7299998998641968,0 -1.5399999618530273,0.5800000429153442 0.3799999952316284,1.9200000762939453 c2.5,1.5399999618530273 2.5,2.1100001335144043 0.1899999976158142,4.220000267028809 c-1.9200000762939453,1.9200000762939453 -2.299999952316284,1.9200000762939453 -1.340000033378601,0 c0.7699999809265137,-1.340000033378601 0.1899999976158142,-2.299999952316284 -1.5399999618530273,-2.299999952316284 c-2.1100001335144043,0 -2.879999876022339,1.5399999618530273 -2.690000057220459,5.179999828338623 c0.5800000429153442,6.909999847412109 4.990000247955322,12.100000381469727 9.019999504089355,10.5600004196167 c2.690000057220459,-0.9600000381469727 2.690000057220459,-0.5800000429153442 0.3799999952316284,2.1100001335144043 c-2.1100001335144043,2.690000057220459 -2.1100001335144043,3.8400001525878906 0,6.53000020980835 c5.570000171661377,7.099999904632568 10.5600004196167,10.180000305175781 15.739999771118164,9.789999961853027 c2.879999876022339,-0.3799999952316284 5.950000286102295,0.5800000429153442 6.909999847412109,1.9200000762939453 c1.7299998998641968,2.690000057220459 7.680000305175781,1.149999976158142 8.0600004196167,-2.299999952316284 c0.1899999976158142,-1.149999976158142 0.5800000429153442,-4.220000267028809 0.9600000381469727,-6.909999847412109 c0.3799999952316284,-2.690000057220459 0.9600000381469727,-7.490000247955322 1.149999976158142,-10.5600004196167 c0.5800000429153442,-5.950000286102295 6.909999847412109,-14.210000991821289 10.180000305175781,-13.25 c3.259999990463257,1.149999976158142 7.869999885559082,-3.6500000953674316 9.40999984741211,-9.40999984741211 c0.5800000429153442,-2.879999876022339 2.1100001335144043,-5.179999828338623 3.4599997997283936,-5.179999828338623 c3.4599997997283936,0 14.980000495910645,-9.600000381469727 14.980000495910645,-12.670000076293945 c0,-3.259999990463257 -4.03000020980835,-3.6500000953674316 -7.099999904632568,-0.5800000429153442 c-1.340000033378601,1.340000033378601 -1.9200000762939453,0.5800000429153442 -1.9200000762939453,-2.879999876022339 c0,-4.420000076293945 0.3799999952316284,-4.610000133514404 5.950000286102295,-3.6500000953674316 c5.179999828338623,1.149999976158142 5.570000171661377,0.7699999809265137 3.4599997997283936,-1.7299998998641968 c-2.1100001335144043,-2.690000057220459 -8.260000228881836,-4.610000133514404 -17.09000015258789,-5.759999752044678 c-3.6500000953674316,-0.3799999952316284 0.9600000381469727,-5.380000114440918 4.990000247955322,-5.380000114440918 c1.9200000762939453,0 3.259999990463257,-1.5399999618530273 3.259999990463257,-3.8400001525878906 c0,-2.879999876022339 -1.340000033378601,-3.8400001525878906 -4.990000247955322,-4.03000020980835 c-4.220000267028809,0 -4.420000076293945,-0.1899999976158142 -0.9600000381469727,-1.5399999618530273 c3.259999990463257,-1.340000033378601 2.879999876022339,-1.7299998998641968 -2.690000057220459,-3.070000171661377 c-6.340000152587891,-1.340000033378601 -6.53000020980835,-1.5399999618530273 -3.070000171661377,-4.03000020980835 c3.4599997997283936,-2.690000057220459 3.4599997997283936,-2.690000057220459 -0.1899999976158142,-2.879999876022339 c-1.9200000762939453,-0.1899999976158142 -4.420000076293945,-0.1899999976158142 -5.179999828338623,0 c-0.7699999809265137,0.1899999976158142 -2.5,-2.299999952316284 -3.4599997997283936,-5.570000171661377 c-1.149999976158142,-3.070000171661377 -2.879999876022339,-5.380000114440918 -3.6500000953674316,-4.800000190734863 c-0.9600000381469727,0.5800000429153442 -1.149999976158142,-1.5399999618530273 -0.7699999809265137,-4.800000190734863 c1.149999976158142,-7.099999904632568 -3.259999990463257,-8.0600004196167 -6.53000020980835,-1.5399999618530273 c-1.149999976158142,2.5 -2.1100001335144043,3.259999990463257 -2.1100001335144043,1.9200000762939453 c-0.1899999976158142,-1.5399999618530273 -1.149999976158142,-1.9200000762939453 -2.5,-1.149999976158142 c-1.340000033378601,0.9600000381469727 -4.03000020980835,1.7299998998641968 -5.950000286102295,1.7299998998641968 c-3.259999990463257,0.3799999952316284 -3.070000171661377,-0.1899999976158142 0.7699999809265137,-3.070000171661377 c3.259999990463257,-2.5 3.6500000953674316,-3.6500000953674316 1.7299998998641968,-3.6500000953674316 c-1.5399999618530273,0 -4.610000133514404,-0.5800000429153442 -6.909999847412109,-1.149999976158142 C334.2121887207031,-0.3946853578090668 331.3321838378906,0.3653244078159332 329.2121887207031,2.6752853393554688 z" id="svg_3" class="" fill="#41e841" fill-opacity="1"/><path d="M208.0721893310547,23.98534393310547 c-3.070000171661377,1.9200000762939453 -6.53000020980835,9.220000267028809 -5.179999828338623,10.75 c0.5800000429153442,0.5800000429153442 3.8400001525878906,1.149999976158142 7.099999904632568,1.340000033378601 c5.759999752044678,0.1899999976158142 5.759999752044678,0.1899999976158142 1.149999976158142,1.7299998998641968 l-4.800000190734863,1.340000033378601 l4.800000190734863,1.9200000762939453 c3.6500000953674316,1.5399999618530273 6.340000152587891,1.149999976158142 10.940000534057617,-0.9600000381469727 c5.179999828338623,-2.5 5.759999752044678,-3.4599997997283936 4.220000267028809,-6.53000020980835 c-1.149999976158142,-1.9200000762939453 -2.690000057220459,-3.070000171661377 -3.8400001525878906,-2.5 c-0.9600000381469727,0.7699999809265137 -1.7299998998641968,0.1899999976158142 -1.7299998998641968,-0.7699999809265137 c0,-1.149999976158142 -0.9600000381469727,-2.1100001335144043 -2.299999952316284,-2.1100001335144043 c-1.149999976158142,0 -3.6500000953674316,-1.340000033378601 -5.179999828338623,-2.690000057220459 C211.52220153808594,23.98534393310547 209.22219848632812,23.21532440185547 208.0721893310547,23.98534393310547 z" id="svg_6" class="" fill="#41e841" fill-opacity="1"/><path d="M178.3121795654297,37.615325927734375 c1.340000033378601,0.9600000381469727 1.9200000762939453,2.690000057220459 1.340000033378601,3.8400001525878906 c-0.7699999809265137,1.340000033378601 0.1899999976158142,2.1100001335144043 2.5,2.1100001335144043 c1.9200000762939453,0 4.990000247955322,0.5800000429153442 6.71999979019165,1.149999976158142 c6.53000020980835,2.5 2.690000057220459,-3.259999990463257 -3.8400001525878906,-5.950000286102295 C177.35218811035156,35.505313873291016 174.27220153808594,35.12528610229492 178.3121795654297,37.615325927734375 z" id="svg_9" class="" fill="#41e841" fill-opacity="1"/><path d="M195.7821807861328,41.64530563354492 c0,0.9600000381469727 1.9200000762939453,1.9200000762939453 4.420000076293945,1.9200000762939453 c3.4599997997283936,0 3.6500000953674316,-0.3799999952316284 1.340000033378601,-1.9200000762939453 C197.89219665527344,39.15531539916992 195.7821807861328,39.15531539916992 195.7821807861328,41.64530563354492 z" id="svg_10" class="" fill="#41e841" fill-opacity="1"/><path d="M155.0721893310547,46.83534622192383 c1.149999976158142,0.3799999952316284 3.4599997997283936,0.3799999952316284 4.800000190734863,0 c1.149999976158142,-0.5800000429153442 0.1899999976158142,-0.9600000381469727 -2.5,-0.9600000381469727 C154.6921844482422,45.87528610229492 153.73219299316406,46.255313873291016 155.0721893310547,46.83534622192383 z" id="svg_11" class="" fill="#41e841" fill-opacity="1"/><path d="M381.6321716308594,46.83534622192383 c1.340000033378601,0.5800000429153442 3.070000171661377,0.3799999952316284 3.6500000953674316,-0.1899999976158142 c0.7699999809265137,-0.5800000429153442 -0.3799999952316284,-1.149999976158142 -2.5,-0.9600000381469727 C380.6722106933594,45.67528533935547 380.0921936035156,46.255313873291016 381.6321716308594,46.83534622192383 z" id="svg_12" class="" fill="#41e841" fill-opacity="1"/><path d="M135.68218994140625,50.285343170166016 c-9.40999984741211,3.259999990463257 -10.180000305175781,4.03000020980835 -5.179999828338623,5.380000114440918 c2.5,0.5800000429153442 4.420000076293945,0 5.179999828338623,-1.7299998998641968 c0.5800000429153442,-1.5399999618530273 2.1100001335144043,-2.5 3.6500000953674316,-1.9200000762939453 c1.340000033378601,0.5800000429153442 3.4599997997283936,-0.3799999952316284 4.610000133514404,-1.9200000762939453 C146.8221893310547,46.83534622192383 145.09219360351562,46.83534622192383 135.68218994140625,50.285343170166016 z" id="svg_13" class="" fill="#41e841" fill-opacity="1"/><path d="M164.10218811035156,54.515323638916016 c0.9600000381469727,3.4599997997283936 0.3799999952316284,4.420000076293945 -2.690000057220459,4.420000076293945 c-2.1100001335144043,0 -4.420000076293945,-0.9600000381469727 -4.990000247955322,-1.9200000762939453 c-1.9200000762939453,-2.879999876022339 -8.640000343322754,-2.299999952316284 -12.100000381469727,1.340000033378601 c-3.070000171661377,2.879999876022339 -2.690000057220459,3.070000171661377 4.990000247955322,2.1100001335144043 c7.869999885559082,-1.149999976158142 11.330000877380371,0.9600000381469727 4.800000190734863,3.070000171661377 c-1.9200000762939453,0.5800000429153442 -0.7699999809265137,0.5800000429153442 2.299999952316284,0 c3.259999990463257,-0.5800000429153442 7.869999885559082,-1.340000033378601 10.5600004196167,-1.5399999618530273 c7.490000247955322,-0.9600000381469727 7.680000305175781,-0.9600000381469727 7.680000305175781,-3.070000171661377 c0,-1.149999976158142 -1.340000033378601,-1.9200000762939453 -3.070000171661377,-1.9200000762939453 c-1.7299998998641968,0 -4.420000076293945,-1.5399999618530273 -5.950000286102295,-3.4599997997283936 C163.14219665527344,50.48534393310547 162.9521942138672,50.67528533935547 164.10218811035156,54.515323638916016 z" id="svg_14" class="" fill="#41e841" fill-opacity="1"/><path d="M203.0721893310547,52.595306396484375 c1.340000033378601,0.5800000429153442 3.070000171661377,0.3799999952316284 3.6500000953674316,-0.1899999976158142 c0.7699999809265137,-0.5800000429153442 -0.3799999952316284,-1.149999976158142 -2.5,-0.9600000381469727 C202.1121826171875,51.44530487060547 201.5421905517578,52.015323638916016 203.0721893310547,52.595306396484375 z" id="svg_15" class="" fill="#41e841" fill-opacity="1"/><path d="M186.9521942138672,56.04530715942383 c-3.070000171661377,2.5 -3.070000171661377,2.690000057220459 -0.1899999976158142,1.7299998998641968 c1.7299998998641968,-0.5800000429153442 3.259999990463257,-0.1899999976158142 3.259999990463257,0.9600000381469727 c0,1.149999976158142 1.340000033378601,2.1100001335144043 2.879999876022339,2.1100001335144043 s2.879999876022339,-1.7299998998641968 2.879999876022339,-3.8400001525878906 C195.7821807861328,52.40531539916992 192.13218688964844,52.015323638916016 186.9521942138672,56.04530715942383 z" id="svg_17" class="" fill="#41e841" fill-opacity="1"/><path d="M212.2921905517578,57.39530563354492 c1.9200000762939453,6.340000152587891 1.5399999618530273,6.140000343322754 18.239999771118164,6.71999979019165 c11.710000038146973,0.3799999952316284 15.170000076293945,-0.1899999976158142 15.170000076293945,-2.1100001335144043 c0,-3.8400001525878906 -4.990000247955322,-5.179999828338623 -13.4399995803833,-3.8400001525878906 c-8.640000343322754,1.340000033378601 -18.05000114440918,-0.3799999952316284 -16.31999969482422,-3.070000171661377 c0.5800000429153442,-1.149999976158142 -0.1899999976158142,-1.9200000762939453 -1.9200000762939453,-1.9200000762939453 C211.71218872070312,53.16532516479492 211.14219665527344,54.31532669067383 212.2921905517578,57.39530563354492 z" id="svg_18" class="" fill="#41e841" fill-opacity="1"/><path d="M122.82219696044922,69.48515319824219 c-1.149999976158142,2.879999876022339 -2.5,6.140000343322754 -3.070000171661377,6.909999847412109 c-0.5800000429153442,0.9600000381469727 1.340000033378601,2.690000057220459 4.220000267028809,4.03000020980835 c4.220000267028809,1.9200000762939453 5.380000114440918,1.9200000762939453 7.300000190734863,-0.7699999809265137 c1.149999976158142,-1.5399999618530273 4.990000247955322,-4.800000190734863 8.640000343322754,-6.909999847412109 c6.909999847412109,-4.220000267028809 6.53000020980835,-4.610000133514404 -7.869999885559082,-7.300000190734863 C125.31218719482422,64.30522155761719 124.55218505859375,64.68524932861328 122.82219696044922,69.48515319824219 z" id="svg_19" class="" fill="#41e841" fill-opacity="1"/><path d="M204.232177734375,69.29515838623047 c-0.5800000429153442,1.7299998998641968 -0.5800000429153442,4.610000133514404 0.1899999976158142,6.340000152587891 c0.9600000381469727,2.299999952316284 1.7299998998641968,2.690000057220459 2.299999952316284,0.9600000381469727 c0.5800000429153442,-1.149999976158142 1.9200000762939453,-2.299999952316284 3.4599997997283936,-2.299999952316284 c1.340000033378601,0 3.4599997997283936,-1.340000033378601 4.800000190734863,-2.879999876022339 c1.9200000762939453,-2.299999952316284 1.9200000762939453,-2.879999876022339 -0.5800000429153442,-2.879999876022339 c-1.5399999618530273,0 -4.220000267028809,-0.5800000429153442 -5.950000286102295,-1.149999976158142 C206.5321807861328,66.60517120361328 204.9921875,67.37519073486328 204.232177734375,69.29515838623047 z" id="svg_20" class="" fill="#41e841" fill-opacity="1"/><path d="M189.4421844482422,71.59510803222656 c0.5800000429153442,1.7299998998641968 -0.3799999952316284,2.690000057220459 -2.5,2.690000057220459 c-3.4599997997283936,0.1899999976158142 -3.4599997997283936,0.1899999976158142 0.1899999976158142,2.299999952316284 c2.1100001335144043,1.149999976158142 4.420000076293945,2.879999876022339 4.990000247955322,3.8400001525878906 c1.5399999618530273,2.5 7.490000247955322,-0.3799999952316284 7.490000247955322,-3.4599997997283936 c0,-1.5399999618530273 -0.9600000381469727,-2.690000057220459 -2.1100001335144043,-2.690000057220459 c-1.149999976158142,0 -1.7299998998641968,-1.149999976158142 -1.149999976158142,-2.690000057220459 c0.7699999809265137,-1.7299998998641968 -0.3799999952316284,-2.690000057220459 -3.4599997997283936,-2.690000057220459 C189.8321990966797,68.91513061523438 188.6721954345703,69.87513732910156 189.4421844482422,71.59510803222656 z" id="svg_21" class="" fill="#41e841" fill-opacity="1"/><path d="M223.6221923828125,71.21513366699219 c-1.9200000762939453,1.340000033378601 -3.8400001525878906,4.420000076293945 -4.220000267028809,6.71999979019165 c-0.3799999952316284,3.070000171661377 0.3799999952316284,4.03000020980835 3.8400001525878906,4.220000267028809 c3.8400001525878906,0 3.8400001525878906,0.1899999976158142 0.5800000429153442,1.5399999618530273 c-2.690000057220459,0.9600000381469727 -0.9600000381469727,1.9200000762939453 6.71999979019165,3.4599997997283936 c13.0600004196167,2.690000057220459 19.389999389648438,2.690000057220459 18.05000114440918,0.3799999952316284 c-1.7299998998641968,-2.690000057220459 0.5800000429153442,-2.1100001335144043 5.759999752044678,1.340000033378601 c2.690000057220459,1.7299998998641968 4.220000267028809,4.03000020980835 3.4599997997283936,5.179999828338623 c-0.5800000429153442,0.9600000381469727 -0.3799999952316284,1.340000033378601 0.7699999809265137,0.7699999809265137 c0.9600000381469727,-0.7699999809265137 3.8400001525878906,0.5800000429153442 6.140000343322754,2.690000057220459 c3.8400001525878906,3.6500000953674316 4.03000020980835,4.220000267028809 1.340000033378601,7.300000190734863 c-1.7299998998641968,1.9200000762939453 -2.5,4.03000020980835 -1.7299998998641968,4.610000133514404 c1.149999976158142,1.340000033378601 -0.1899999976158142,1.7299998998641968 -6.909999847412109,2.1100001335144043 c-1.5399999618530273,0.1899999976158142 -3.070000171661377,1.340000033378601 -3.4599997997283936,2.5 c-0.5800000429153442,1.7299998998641968 0.7699999809265137,2.1100001335144043 4.990000247955322,1.340000033378601 c4.610000133514404,-0.9600000381469727 6.909999847412109,-0.3799999952316284 9.40999984741211,2.299999952316284 c2.879999876022339,3.4599997997283936 12.100000381469727,8.449999809265137 15.170000076293945,8.449999809265137 c0.5800000429153442,0 -0.3799999952316284,-1.7299998998641968 -2.299999952316284,-3.8400001525878906 c-3.8400001525878906,-4.220000267028809 -2.690000057220459,-4.990000247955322 3.070000171661377,-1.9200000762939453 c2.879999876022339,1.7299998998641968 3.6500000953674316,1.340000033378601 3.6500000953674316,-1.340000033378601 c0,-1.9200000762939453 -1.7299998998641968,-4.610000133514404 -3.8400001525878906,-5.950000286102295 c-3.8400001525878906,-2.299999952316284 -5.380000114440918,-8.0600004196167 -2.1100001335144043,-8.0600004196167 c0.9600000381469727,0 3.259999990463257,1.340000033378601 4.800000190734863,2.879999876022339 c2.5,2.5 3.8400001525878906,2.690000057220459 7.099999904632568,0.7699999809265137 c4.03000020980835,-2.1100001335144043 4.220000267028809,-2.299999952316284 0.5800000429153442,-4.220000267028809 c-1.9200000762939453,-1.149999976158142 -4.03000020980835,-2.5 -4.610000133514404,-3.070000171661377 c-0.5800000429153442,-0.7699999809265137 -3.259999990463257,-2.299999952316284 -6.140000343322754,-3.4599997997283936 c-3.070000171661377,-1.340000033378601 -5.380000114440918,-3.259999990463257 -5.380000114440918,-4.420000076293945 s0.9600000381469727,-1.5399999618530273 1.9200000762939453,-0.9600000381469727 c1.149999976158142,0.7699999809265137 1.7299998998641968,0.1899999976158142 1.5399999618530273,-1.340000033378601 c-0.7699999809265137,-2.879999876022339 -12.289999961853027,-9.220000267028809 -17.280000686645508,-9.220000267028809 c-1.9200000762939453,0 -3.4599997997283936,-1.149999976158142 -3.4599997997283936,-2.690000057220459 c0,-1.340000033378601 -2.1100001335144043,-3.070000171661377 -4.800000190734863,-3.4599997997283936 c-2.690000057220459,-0.5800000429153442 -4.800000190734863,-0.1899999976158142 -4.800000190734863,0.5800000429153442 c0,0.9600000381469727 -1.7299998998641968,1.7299998998641968 -4.03000020980835,1.7299998998641968 c-2.690000057220459,0 -3.6500000953674316,-0.9600000381469727 -3.070000171661377,-2.690000057220459 c1.7299998998641968,-4.420000076293945 -3.4599997997283936,-7.490000247955322 -8.0600004196167,-4.990000247955322 c-3.070000171661377,1.5399999618530273 -3.8400001525878906,3.259999990463257 -3.070000171661377,7.680000305175781 c1.340000033378601,7.300000190734863 -1.9200000762939453,7.490000247955322 -4.420000076293945,0.1899999976158142 c-1.340000033378601,-3.8400001525878906 -1.340000033378601,-6.140000343322754 0.1899999976158142,-7.680000305175781 C232.0721893310547,67.56517791748047 228.0321807861328,67.95516967773438 223.6221923828125,71.21513366699219 z" id="svg_22" class="" fill="#41e841" fill-opacity="1"/><path d="M141.63218688964844,74.47509002685547 c-4.610000133514404,2.690000057220459 -4.420000076293945,5.570000171661377 0.5800000429153442,5.570000171661377 c3.4599997997283936,0 3.6500000953674316,0.5800000429153442 1.9200000762939453,2.690000057220459 c-2.1100001335144043,2.299999952316284 -0.9600000381469727,2.879999876022339 5.950000286102295,3.6500000953674316 l8.260000228881836,0.7699999809265137 l-8.260000228881836,0.1899999976158142 c-8.0600004196167,0.3799999952316284 -9.980000495910645,4.220000267028809 -2.1100001335144043,4.220000267028809 c1.9200000762939453,0 3.6500000953674316,0.9600000381469727 3.6500000953674316,2.1100001335144043 c0,1.5399999618530273 2.879999876022339,1.7299998998641968 9.220000267028809,0.9600000381469727 c4.990000247955322,-0.7699999809265137 12.480000495910645,-1.340000033378601 16.700000762939453,-1.340000033378601 c5.759999752044678,0.1899999976158142 6.909999847412109,-0.1899999976158142 4.800000190734863,-1.7299998998641968 c-2.5,-1.5399999618530273 -2.299999952316284,-1.9200000762939453 0.9600000381469727,-1.9200000762939453 c3.4599997997283936,-0.1899999976158142 3.4599997997283936,-0.3799999952316284 -0.7699999809265137,-2.690000057220459 c-2.5,-1.340000033378601 -5.759999752044678,-5.179999828338623 -7.099999904632568,-8.640000343322754 c-2.879999876022339,-7.099999904632568 -9.40999984741211,-8.449999809265137 -7.490000247955322,-1.7299998998641968 c0.9600000381469727,3.8400001525878906 0.7699999809265137,4.03000020980835 -1.340000033378601,1.340000033378601 c-1.5399999618530273,-1.9200000762939453 -5.179999828338623,-2.879999876022339 -9.600000381469727,-2.879999876022339 c-4.03000020980835,0.1899999976158142 -7.300000190734863,-0.3799999952316284 -7.300000190734863,-1.149999976158142 C149.7021942138672,71.79511260986328 145.6721954345703,72.17509460449219 141.63218688964844,74.47509002685547 z" id="svg_23" class="" fill="#41e841" fill-opacity="1"/><path d="M201.9221954345703,82.54496765136719 c-2.5,3.070000171661377 -0.7699999809265137,6.140000343322754 4.610000133514404,7.869999885559082 c4.990000247955322,1.5399999618530273 7.099999904632568,-2.5 3.6500000953674316,-7.099999904632568 C207.3022003173828,79.47499084472656 204.6121826171875,79.08505249023438 201.9221954345703,82.54496765136719 z" id="svg_24" class="" fill="#41e841" fill-opacity="1"/><path d="M28.552188873291016,83.50497436523438 c-4.220000267028809,1.149999976158142 -11.710000038146973,4.800000190734863 -18.239999771118164,9.019999504089355 c-5.759999752044678,4.03000020980835 -5.759999752044678,4.03000020980835 -1.9200000762939453,6.909999847412109 c2.299999952316284,1.7299998998641968 6.140000343322754,3.6500000953674316 8.640000343322754,4.610000133514404 c6.140000343322754,1.9200000762939453 1.340000033378601,4.990000247955322 -5.759999752044678,3.4599997997283936 c-2.879999876022339,-0.5800000429153442 -6.71999979019165,0 -8.830000877380371,1.149999976158142 c-3.259999990463257,1.9200000762939453 -3.259999990463257,1.9200000762939453 0,2.1100001335144043 c2.1100001335144043,0 2.879999876022339,0.7699999809265137 2.1100001335144043,2.299999952316284 c-0.9600000381469727,1.5399999618530273 0.9600000381469727,1.7299998998641968 6.53000020980835,0.9600000381469727 c7.099999904632568,-0.7699999809265137 8.0600004196167,-0.5800000429153442 8.0600004196167,2.690000057220459 c0,1.9200000762939453 -1.340000033378601,3.8400001525878906 -2.879999876022339,3.8400001525878906 c-6.140000343322754,0.5800000429153442 -6.909999847412109,0.7699999809265137 -8.640000343322754,3.6500000953674316 c-2.690000057220459,4.220000267028809 -2.299999952316284,5.759999752044678 1.5399999618530273,5.759999752044678 c2.5,0 2.690000057220459,0.3799999952316284 0.5800000429153442,1.7299998998641968 c-1.7299998998641968,1.149999976158142 -1.9200000762939453,2.1100001335144043 -0.3799999952316284,2.879999876022339 c1.149999976158142,0.7699999809265137 2.879999876022339,0.9600000381469727 3.8400001525878906,0.1899999976158142 c1.149999976158142,-0.5800000429153442 2.5,0.1899999976158142 3.4599997997283936,1.7299998998641968 c0.7699999809265137,1.5399999618530273 4.610000133514404,3.070000171661377 8.260000228881836,3.4599997997283936 l6.71999979019165,0.5800000429153442 l-5.179999828338623,5.179999828338623 c-2.879999876022339,3.070000171661377 -4.800000190734863,5.380000114440918 -4.220000267028809,5.380000114440918 c2.299999952316284,0 16.130001068115234,-10.369999885559082 16.130001068115234,-12.100000381469727 c0,-3.070000171661377 10.180000305175781,-10.75 12.289999961853027,-9.40999984741211 c1.340000033378601,0.7699999809265137 0.7699999809265137,1.5399999618530273 -1.149999976158142,1.9200000762939453 c-1.9200000762939453,0.3799999952316284 -3.4599997997283936,1.9200000762939453 -3.4599997997283936,3.4599997997283936 c0,2.1100001335144043 0.7699999809265137,2.299999952316284 3.6500000953674316,0.7699999809265137 c2.1100001335144043,-0.9600000381469727 4.03000020980835,-2.879999876022339 4.420000076293945,-3.8400001525878906 c0.7699999809265137,-2.690000057220459 24.380001068115234,3.259999990463257 28.989999771118164,7.2900004386901855 c2.5,2.299999952316284 3.8400001525878906,2.5 5.570000171661377,0.7699999809265137 c2.299999952316284,-2.299999952316284 4.420000076293945,-0.3799999952316284 12.289999961853027,10.369999885559082 c1.9200000762939453,2.690000057220459 5.759999752044678,7.680000305175781 8.260000228881836,10.5600004196167 c2.299999952316284,3.070000171661377 4.03000020980835,6.909999847412109 3.4599997997283936,8.260000228881836 c-0.5800000429153442,1.5399999618530273 0.9600000381469727,4.03000020980835 3.4599997997283936,5.759999752044678 c5.950000286102295,4.03000020980835 7.869999885559082,3.8400001525878906 4.610000133514404,-0.1899999976158142 c-2.5,-2.879999876022339 -2.299999952316284,-2.879999876022339 1.340000033378601,-0.9600000381469727 c4.800000190734863,2.5 7.099999904632568,7.490000247955322 4.610000133514404,9.019999504089355 c-1.149999976158142,0.7699999809265137 -1.9200000762939453,0.1899999976158142 -1.9200000762939453,-0.7699999809265137 c0,-1.149999976158142 -0.5800000429153442,-2.1100001335144043 -1.340000033378601,-2.1100001335144043 c-0.9600000381469727,0 -1.340000033378601,6.329999923706055 -1.149999976158142,14.210000991821289 c0.1899999976158142,11.710000038146973 1.340000033378601,15.9399995803833 5.380000114440918,23.03999900817871 c2.690000057220459,4.800000190734863 6.71999979019165,9.220000267028809 9.019999504089355,9.980000495910645 c2.1100001335144043,0.5800000429153442 4.990000247955322,3.8400001525878906 6.71999979019165,7.099999904632568 c5.380000114440918,11.710000038146973 8.449999809265137,16.700000762939453 10.369999885559082,16.700000762939453 c0.9600000381469727,0 1.7299998998641968,1.149999976158142 1.7299998998641968,2.5 c0,1.5399999618530273 1.9200000762939453,4.220000267028809 4.03000020980835,6.340000152587891 c3.8400001525878906,3.259999990463257 -1.149999976158142,-5.570000171661377 -10.369999885559082,-18.81999969482422 c-1.149999976158142,-1.7299998998641968 -1.5399999618530273,-4.03000020980835 -0.5800000429153442,-4.800000190734863 c0.9600000381469727,-0.7699999809265137 2.5,0.1899999976158142 3.8400001525878906,2.1100001335144043 c1.149999976158142,1.9200000762939453 6.71999979019165,8.449999809265137 12.100000381469727,14.40000057220459 c5.759999752044678,6.140000343322754 10.180000305175781,12.480000495910645 10.180000305175781,14.980000495910645 c0,3.070000171661377 2.690000057220459,5.380000114440918 10.5600004196167,9.40999984741211 c5.759999752044678,2.690000057220459 12.860000610351562,4.990000247955322 15.739999771118164,4.990000247955322 s7.680000305175781,1.7299998998641968 10.940000534057617,3.6500000953674316 c3.259999990463257,2.1100001335144043 7.490000247955322,3.6500000953674316 9.220000267028809,3.6500000953674316 c1.7299998998641968,0 5.179999828338623,2.5 7.680000305175781,5.570000171661377 c6.140000343322754,7.490000247955322 15.360000610351562,13.25 16.510000228881836,10.170000076293945 c0.9600000381469727,-3.259999990463257 6.140000343322754,-2.879999876022339 6.140000343322754,0.5800000429153442 c0,1.5399999618530273 -1.149999976158142,2.879999876022339 -2.690000057220459,2.879999876022339 c-4.03000020980835,0 -9.600000381469727,9.789999961853027 -9.019999504089355,15.930000305175781 c0.3799999952316284,3.4599997997283936 -1.149999976158142,7.300000190734863 -4.610000133514404,11.330000877380371 s-4.800000190734863,7.2900004386901855 -4.03000020980835,10.369999885559082 c0.5800000429153442,2.299999952316284 0.1899999976158142,4.610000133514404 -0.9600000381469727,4.990000247955322 c-0.9600000381469727,0.3799999952316284 1.7299998998641968,7.490000247955322 6.340000152587891,16.130001068115234 c6.140000343322754,11.710000038146973 9.789999961853027,16.510000228881836 14.980000495910645,19.200000762939453 c5.380000114440918,2.879999876022339 6.909999847412109,4.990000247955322 7.490000247955322,10.369999885559082 c0.7699999809265137,7.869999885559082 -3.4599997997283936,41.09000015258789 -6.140000343322754,48 c-2.690000057220459,6.909999847412109 -3.4599997997283936,19.200000762939453 -1.340000033378601,19.200000762939453 c2.1100001335144043,0 1.340000033378601,11.710000038146973 -0.9600000381469727,15.360000610351562 c-0.5800000429153442,1.149999976158142 -2.1100001335144043,1.340000033378601 -3.259999990463257,0.7699999809265137 c-1.340000033378601,-0.7699999809265137 -1.5399999618530273,-0.3799999952316284 -0.7699999809265137,0.9600000381469727 c0.7699999809265137,1.340000033378601 1.9200000762939453,5.759999752044678 2.5,10.170000076293945 c0.3799999952316284,4.220000267028809 2.1100001335144043,9.019999504089355 3.6500000953674316,10.5600004196167 c3.070000171661377,3.070000171661377 10.75,1.5399999618530273 9.980000495910645,-1.9200000762939453 c-0.3799999952316284,-1.340000033378601 1.5399999618530273,-5.179999828338623 3.8400001525878906,-8.640000343322754 c3.8400001525878906,-5.179999828338623 4.220000267028809,-6.71999979019165 2.1100001335144043,-9.210000038146973 c-2.1100001335144043,-2.690000057220459 -1.9200000762939453,-3.4599997997283936 0.9600000381469727,-5.759999752044678 c2.1100001335144043,-1.340000033378601 3.6500000953674316,-5.179999828338623 3.8400001525878906,-8.449999809265137 c0.1899999976158142,-4.03000020980835 1.149999976158142,-5.759999752044678 3.4599997997283936,-5.759999752044678 c1.7299998998641968,0 3.8400001525878906,-1.7299998998641968 4.420000076293945,-3.8400001525878906 c0.7699999809265137,-2.690000057220459 2.879999876022339,-3.8400001525878906 6.71999979019165,-3.8400001525878906 c7.300000190734863,0 10.940000534057617,-5.950000286102295 6.53000020980835,-10.5600004196167 c-2.879999876022339,-2.879999876022339 -2.690000057220459,-3.070000171661377 2.299999952316284,-2.299999952316284 c5.759999752044678,0.7699999809265137 12.289999961853027,-3.070000171661377 12.289999961853027,-7.300000190734863 c0,-1.149999976158142 2.690000057220459,-4.610000133514404 5.759999752044678,-7.680000305175781 c3.259999990463257,-3.070000171661377 5.759999752044678,-7.490000247955322 5.759999752044678,-9.980000495910645 c0,-4.800000190734863 7.300000190734863,-10.5600004196167 14.019999504089355,-10.940000534057617 c4.990000247955322,-0.1899999976158142 10.940000534057617,-11.140000343322754 11.90000057220459,-21.5 c0.3799999952316284,-3.6500000953674316 3.259999990463257,-10.180000305175781 6.340000152587891,-14.40000057220459 c5.570000171661377,-7.490000247955322 6.340000152587891,-15.170000076293945 1.7299998998641968,-15.170000076293945 c-1.149999976158142,0 -3.4599997997283936,-1.340000033378601 -5.179999828338623,-2.879999876022339 c-1.7299998998641968,-1.5399999618530273 -6.71999979019165,-3.070000171661377 -10.940000534057617,-3.4599997997283936 c-4.420000076293945,-0.1899999976158142 -7.490000247955322,-0.9600000381469727 -7.099999904632568,-1.7299998998641968 c1.340000033378601,-2.1100001335144043 -8.260000228881836,-4.03000020980835 -10.940000534057617,-2.299999952316284 c-1.5399999618530273,0.7699999809265137 -1.7299998998641968,0.5800000429153442 -0.9600000381469727,-0.7699999809265137 c0.7699999809265137,-1.340000033378601 0.1899999976158142,-2.299999952316284 -1.5399999618530273,-2.299999952316284 c-1.5399999618530273,0 -3.070000171661377,1.149999976158142 -3.6500000953674316,2.299999952316284 c-0.3799999952316284,1.340000033378601 -1.5399999618530273,1.9200000762939453 -2.5,0.9600000381469727 c-0.7699999809265137,-0.7699999809265137 -0.1899999976158142,-2.879999876022339 1.5399999618530273,-4.610000133514404 c2.5,-2.5 2.690000057220459,-3.8400001525878906 0.9600000381469727,-7.099999904632568 c-3.4599997997283936,-5.950000286102295 -7.490000247955322,-8.640000343322754 -13.0600004196167,-8.830000877380371 c-2.690000057220459,0 -6.53000020980835,-1.7299998998641968 -8.449999809265137,-3.8400001525878906 c-1.9200000762939453,-2.1100001335144043 -4.610000133514404,-3.8400001525878906 -5.950000286102295,-3.8400001525878906 c-1.340000033378601,0 -2.690000057220459,-0.9600000381469727 -3.070000171661377,-2.299999952316284 c-0.3799999952316284,-1.149999976158142 -3.6500000953674316,-2.5 -7.099999904632568,-2.690000057220459 c-3.259999990463257,-0.1899999976158142 -8.449999809265137,-0.9600000381469727 -11.330000877380371,-1.9200000762939453 c-2.879999876022339,-0.7699999809265137 -6.71999979019165,-1.149999976158142 -8.830000877380371,-0.9600000381469727 c-1.9200000762939453,0.3799999952316284 -2.879999876022339,-0.3799999952316284 -2.299999952316284,-1.340000033378601 c1.9200000762939453,-3.070000171661377 -3.8400001525878906,-6.329999923706055 -8.830000877380371,-5.179999828338623 c-5.950000286102295,1.5399999618530273 -11.140000343322754,-4.03000020980835 -10.5600004196167,-11.519999504089355 c0.3799999952316284,-5.380000114440918 -0.1899999976158142,-5.759999752044678 -6.71999979019165,-6.329999923706055 l-7.099999904632568,-0.5800000429153442 l2.690000057220459,-8.640000343322754 c2.299999952316284,-7.869999885559082 2.299999952316284,-8.449999809265137 -0.9600000381469727,-8.449999809265137 c-1.9200000762939453,0 -4.800000190734863,2.1100001335144043 -6.53000020980835,4.800000190734863 c-4.03000020980835,6.140000343322754 -11.140000343322754,6.329999923706055 -16.700000762939453,0.3799999952316284 c-3.259999990463257,-3.4599997997283936 -3.8400001525878906,-5.759999752044678 -2.879999876022339,-13.819999694824219 c1.340000033378601,-11.90000057220459 6.71999979019165,-17.09000015258789 15.9399995803833,-15.739999771118164 c3.6500000953674316,0.5800000429153442 6.340000152587891,0.1899999976158142 6.340000152587891,-0.7699999809265137 c0,-2.299999952316284 14.980000495910645,-1.5399999618530273 18.81999969482422,0.9600000381469727 c1.340000033378601,0.7699999809265137 1.9200000762939453,2.1100001335144043 1.340000033378601,3.070000171661377 c-0.5800000429153442,0.7699999809265137 0.7699999809265137,3.6500000953674316 2.879999876022339,5.950000286102295 c4.420000076293945,5.570000171661377 5.179999828338623,2.1100001335144043 1.5399999618530273,-7.869999885559082 c-2.1100001335144043,-6.340000152587891 -1.9200000762939453,-6.71999979019165 6.140000343322754,-13.630000114440918 c6.71999979019165,-5.759999752044678 8.0600004196167,-8.0600004196167 7.300000190734863,-12.100000381469727 c-0.5800000429153442,-2.879999876022339 -0.5800000429153442,-4.800000190734863 0,-4.220000267028809 c1.149999976158142,1.149999976158142 6.140000343322754,-3.8400001525878906 6.140000343322754,-6.140000343322754 c0,-0.9600000381469727 2.1100001335144043,-2.5 4.610000133514404,-3.070000171661377 c2.5,-0.5800000429153442 4.990000247955322,-2.879999876022339 5.570000171661377,-4.800000190734863 c0.5800000429153442,-2.1100001335144043 4.220000267028809,-5.179999828338623 8.0600004196167,-6.71999979019165 c9.019999504089355,-3.8400001525878906 9.789999961853027,-3.8400001525878906 6.71999979019165,-0.1899999976158142 c-3.6500000953674316,4.220000267028809 -1.9200000762939453,4.420000076293945 5.759999752044678,0.5800000429153442 c5.380000114440918,-2.879999876022339 5.950000286102295,-3.4599997997283936 2.5,-3.4599997997283936 c-5.179999828338623,0 -11.330000877380371,-7.680000305175781 -7.680000305175781,-9.980000495910645 c1.5399999618530273,-0.9600000381469727 0.5800000429153442,-1.5399999618530273 -2.5,-1.5399999618530273 c-2.690000057220459,0 -7.099999904632568,1.340000033378601 -9.600000381469727,3.070000171661377 c-2.690000057220459,1.7299998998641968 -1.9200000762939453,0.3799999952316284 1.9200000762939453,-2.879999876022339 c5.380000114440918,-4.800000190734863 8.260000228881836,-5.950000286102295 15.739999771118164,-5.950000286102295 c4.990000247955322,0 9.600000381469727,-0.9600000381469727 10.180000305175781,-1.9200000762939453 c0.5800000429153442,-1.149999976158142 2.879999876022339,-1.9200000762939453 4.800000190734863,-1.9200000762939453 c3.6500000953674316,0 3.6500000953674316,0.1899999976158142 0,6.71999979019165 l-3.8400001525878906,6.71999979019165 h5.759999752044678 c3.259999990463257,0 6.340000152587891,0 6.909999847412109,-0.1899999976158142 c0.7699999809265137,0 2.1100001335144043,0.9600000381469727 2.879999876022339,2.5 c1.149999976158142,1.7299998998641968 1.7299998998641968,1.7299998998641968 1.7299998998641968,0.1899999976158142 c0,-1.149999976158142 -0.9600000381469727,-2.879999876022339 -1.9200000762939453,-3.4599997997283936 c-1.149999976158142,-0.7699999809265137 -1.5399999618530273,-1.9200000762939453 -0.9600000381469727,-2.879999876022339 c0.5800000429153442,-0.7699999809265137 -0.7699999809265137,-1.9200000762939453 -2.879999876022339,-2.5 c-2.879999876022339,-0.7699999809265137 -3.4599997997283936,-2.299999952316284 -3.070000171661377,-7.680000305175781 c0.7699999809265137,-7.300000190734863 -1.9200000762939453,-9.789999961853027 -7.869999885559082,-7.869999885559082 c-2.5,0.7699999809265137 -2.690000057220459,0.5800000429153442 -0.9600000381469727,-0.5800000429153442 c1.7299998998641968,-1.340000033378601 0.9600000381469727,-2.879999876022339 -3.259999990463257,-6.140000343322754 c-3.070000171661377,-2.5 -5.380000114440918,-5.380000114440918 -4.800000190734863,-6.53000020980835 c0.3799999952316284,-1.340000033378601 -0.9600000381469727,-4.420000076293945 -3.070000171661377,-7.099999904632568 c-3.6500000953674316,-4.420000076293945 -4.03000020980835,-4.610000133514404 -5.950000286102295,-1.340000033378601 c-2.299999952316284,3.8400001525878906 -13.4399995803833,4.03000020980835 -11.90000057220459,0.1899999976158142 c1.5399999618530273,-4.220000267028809 -8.260000228881836,-12.480000495910645 -15.739999771118164,-13.25 c-6.53000020980835,-0.5800000429153442 -6.909999847412109,-0.1899999976158142 -6.53000020980835,4.420000076293945 c0.3799999952316284,2.879999876022339 0,6.340000152587891 -0.9600000381469727,7.680000305175781 c-0.9600000381469727,1.5399999618530273 -0.1899999976158142,4.03000020980835 1.7299998998641968,6.140000343322754 c2.5,2.879999876022339 2.690000057220459,4.420000076293945 0.9600000381469727,7.490000247955322 c-1.149999976158142,2.299999952316284 -2.879999876022339,4.03000020980835 -4.03000020980835,4.03000020980835 c-1.149999976158142,0 -1.7299998998641968,2.299999952316284 -1.5399999618530273,5.380000114440918 c0.3799999952316284,2.879999876022339 0,6.340000152587891 -0.9600000381469727,7.680000305175781 c-2.299999952316284,3.6500000953674316 -8.830000877380371,-2.690000057220459 -8.830000877380371,-8.640000343322754 c0,-2.879999876022339 -1.149999976158142,-4.420000076293945 -3.4599997997283936,-4.420000076293945 c-1.7299998998641968,0 -6.53000020980835,-1.7299998998641968 -10.5600004196167,-3.8400001525878906 c-3.8400001525878906,-2.1100001335144043 -8.830000877380371,-3.8400001525878906 -10.940000534057617,-3.8400001525878906 c-2.1100001335144043,0 -3.8400001525878906,-1.340000033378601 -3.8400001525878906,-2.879999876022339 c0,-1.7299998998641968 -1.340000033378601,-3.4599997997283936 -2.879999876022339,-4.03000020980835 c-4.800000190734863,-1.9200000762939453 -3.259999990463257,-9.600000381469727 3.070000171661377,-14.980000495910645 c4.800000190734863,-4.03000020980835 5.179999828338623,-4.990000247955322 2.299999952316284,-5.179999828338623 c-1.9200000762939453,0 -0.3799999952316284,-0.9600000381469727 3.259999990463257,-2.1100001335144043 c7.680000305175781,-2.1100001335144043 12.100000381469727,-5.380000114440918 7.300000190734863,-5.380000114440918 c-1.7299998998641968,0 -3.8400001525878906,-0.9600000381469727 -4.610000133514404,-2.1100001335144043 c-0.7699999809265137,-1.5399999618530273 0,-1.7299998998641968 2.879999876022339,-0.7699999809265137 c2.879999876022339,0.7699999809265137 4.420000076293945,0.1899999976158142 5.179999828338623,-1.9200000762939453 c0.7699999809265137,-1.7299998998641968 2.5,-2.690000057220459 4.03000020980835,-2.1100001335144043 c1.5399999618530273,0.5800000429153442 2.1100001335144043,0.1899999976158142 1.5399999618530273,-0.9600000381469727 c-0.7699999809265137,-1.149999976158142 0.5800000429153442,-1.340000033378601 3.6500000953674316,-0.5800000429153442 c5.380000114440918,1.340000033378601 6.909999847412109,-2.299999952316284 2.690000057220459,-6.53000020980835 c-1.7299998998641968,-1.7299998998641968 -1.7299998998641968,-2.299999952316284 0.3799999952316284,-2.299999952316284 c2.1100001335144043,-0.1899999976158142 1.9200000762939453,-0.9600000381469727 -0.7699999809265137,-2.879999876022339 c-4.800000190734863,-3.6500000953674316 -7.680000305175781,-3.6500000953674316 -6.140000343322754,0 c0.5800000429153442,1.5399999618530273 0.1899999976158142,2.879999876022339 -0.7699999809265137,2.879999876022339 s-2.299999952316284,1.7299998998641968 -2.879999876022339,4.03000020980835 c-1.340000033378601,4.220000267028809 -5.570000171661377,4.03000020980835 -5.950000286102295,-0.3799999952316284 c-0.1899999976158142,-1.5399999618530273 -0.3799999952316284,-3.4599997997283936 -0.5800000429153442,-4.420000076293945 c0,-0.9600000381469727 -1.5399999618530273,-0.5800000429153442 -3.070000171661377,0.7699999809265137 c-2.299999952316284,1.9200000762939453 -2.879999876022339,1.9200000762939453 -2.879999876022339,-0.7699999809265137 c0,-4.800000190734863 -4.420000076293945,-3.6500000953674316 -9.980000495910645,2.690000057220459 c-4.610000133514404,5.380000114440918 -5.380000114440918,5.570000171661377 -7.099999904632568,2.5 c-1.149999976158142,-1.9200000762939453 -2.1100001335144043,-2.5 -2.1100001335144043,-1.5399999618530273 c0,2.1100001335144043 -15.550000190734863,2.299999952316284 -19.010000228881836,0.1899999976158142 c-3.4599997997283936,-2.1100001335144043 -10.180000305175781,0.7699999809265137 -9.019999504089355,3.8400001525878906 c0.5800000429153442,1.5399999618530273 0.1899999976158142,2.690000057220459 -0.5800000429153442,2.690000057220459 c-0.9600000381469727,0 -2.1100001335144043,-1.149999976158142 -2.690000057220459,-2.5 c-0.3799999952316284,-1.340000033378601 -4.03000020980835,-2.299999952316284 -8.640000343322754,-2.299999952316284 c-4.420000076293945,0 -8.0600004196167,-0.7699999809265137 -7.869999885559082,-1.9200000762939453 c0,-2.5 -16.510000228881836,-7.099999904632568 -26.110000610351562,-7.300000190734863 c-4.220000267028809,0 -8.260000228881836,-0.7699999809265137 -8.830000877380371,-1.7299998998641968 c-0.5800000429153442,-0.7699999809265137 -4.610000133514404,0.1899999976158142 -9.019999504089355,2.299999952316284 c-9.40999984741211,4.610000133514404 -12.480000495910645,4.800000190734863 -7.099999904632568,0.7699999809265137 c3.6500000953674316,-2.879999876022339 3.6500000953674316,-2.879999876022339 -1.9200000762939453,-1.5399999618530273 c-3.070000171661377,0.7699999809265137 -6.140000343322754,2.1100001335144043 -6.71999979019165,2.879999876022339 c-1.149999976158142,1.5399999618530273 -15.9399995803833,-2.1100001335144043 -18.43000030517578,-4.610000133514404 c-0.7699999809265137,-0.7699999809265137 -4.420000076293945,-1.340000033378601 -8.260000228881836,-1.340000033378601 c-3.8400001525878906,-0.1899999976158142 -12.670000076293945,-1.149999976158142 -19.579999923706055,-2.5 C37.00218963623047,83.88495635986328 30.08218765258789,83.11493682861328 28.552188873291016,83.50497436523438 zM257.2221984863281,312.3636474609375 c0,0.9600000381469727 -0.3799999952316284,1.9200000762939453 -0.7699999809265137,1.9200000762939453 c-0.5800000429153442,0 -1.5399999618530273,-0.9600000381469727 -2.1100001335144043,-1.9200000762939453 c-0.5800000429153442,-1.149999976158142 -0.1899999976158142,-1.9200000762939453 0.7699999809265137,-1.9200000762939453 C256.2621765136719,310.4436340332031 257.2221984863281,311.2136535644531 257.2221984863281,312.3636474609375 z" id="svg_25" class="" fill="#41e841" fill-opacity="1"/><path d="M382.0121765136719,87.72489929199219 c-2.5,1.5399999618530273 -2.299999952316284,1.9200000762939453 0.5800000429153442,1.9200000762939453 c1.7299998998641968,0 3.070000171661377,0.5800000429153442 3.070000171661377,1.340000033378601 c-1.149999976158142,7.099999904632568 6.71999979019165,9.600000381469727 16.510000228881836,5.570000171661377 c7.490000247955322,-3.259999990463257 8.0600004196167,-4.420000076293945 3.4599997997283936,-7.869999885559082 c-2.1100001335144043,-1.5399999618530273 -5.179999828338623,-1.9200000762939453 -8.449999809265137,-0.9600000381469727 c-2.879999876022339,0.9600000381469727 -5.759999752044678,1.149999976158142 -6.340000152587891,0.3799999952316284 c-0.5800000429153442,-0.5800000429153442 -1.149999976158142,0.1899999976158142 -1.149999976158142,1.5399999618530273 c0,1.9200000762939453 -0.7699999809265137,1.7299998998641968 -2.299999952316284,-0.5800000429153442 C385.6622009277344,86.76493835449219 384.1321716308594,86.38495635986328 382.0121765136719,87.72489929199219 z" id="svg_26" class="" fill="#41e841" fill-opacity="1"/><path d="M195.01219177246094,90.99486541748047 c-0.5800000429153442,0.5800000429153442 -0.5800000429153442,1.9200000762939453 0,2.690000057220459 c1.340000033378601,2.299999952316284 6.53000020980835,2.1100001335144043 6.53000020980835,0 C201.5421905517578,91.56483459472656 196.5522003173828,89.45487976074219 195.01219177246094,90.99486541748047 z" id="svg_27" class="" fill="#41e841" fill-opacity="1"/><path d="M255.3022003173828,100.39472198486328 c0,1.5399999618530273 0.9600000381469727,2.299999952316284 1.9200000762939453,1.7299998998641968 c1.149999976158142,-0.5800000429153442 1.9200000762939453,-1.9200000762939453 1.9200000762939453,-3.070000171661377 c0,-0.9600000381469727 -0.7699999809265137,-1.7299998998641968 -1.9200000762939453,-1.7299998998641968 C256.2621765136719,97.32475280761719 255.3022003173828,98.67475128173828 255.3022003173828,100.39472198486328 z" id="svg_28" class="" fill="#41e841" fill-opacity="1"/><path d="M229.9521942138672,113.45453643798828 c-0.9600000381469727,4.990000247955322 3.070000171661377,8.449999809265137 5.380000114440918,4.800000190734863 c0.5800000429153442,-1.149999976158142 2.299999952316284,-1.5399999618530273 3.8400001525878906,-0.9600000381469727 c1.5399999618530273,0.5800000429153442 2.690000057220459,0.1899999976158142 2.690000057220459,-0.7699999809265137 s-1.9200000762939453,-2.299999952316284 -4.220000267028809,-3.070000171661377 c-2.5,-0.7699999809265137 -4.990000247955322,-2.1100001335144043 -5.570000171661377,-3.070000171661377 C231.3022003173828,109.23461151123047 230.34219360351562,110.76457214355469 229.9521942138672,113.45453643798828 z" id="svg_29" class="" fill="#41e841" fill-opacity="1"/><path d="M245.1221923828125,264.9335021972656 c3.259999990463257,1.340000033378601 6.71999979019165,2.879999876022339 7.490000247955322,3.6500000953674316 c0.7699999809265137,0.9600000381469727 2.690000057220459,1.5399999618530273 4.420000076293945,1.5399999618530273 c1.7299998998641968,-0.1899999976158142 0,-1.7299998998641968 -3.6500000953674316,-3.8400001525878906 c-3.6500000953674316,-2.1100001335144043 -8.449999809265137,-3.6500000953674316 -10.5600004196167,-3.6500000953674316 C240.13218688964844,262.6334533691406 240.90220642089844,263.4034729003906 245.1221923828125,264.9335021972656 z" id="svg_43" class="" fill="#41e841" fill-opacity="1"/><path d="M266.82220458984375,273.9635314941406 c0,0.9600000381469727 1.7299998998641968,1.9200000762939453 3.8400001525878906,1.9200000762939453 c2.1100001335144043,0 3.8400001525878906,-0.9600000381469727 3.8400001525878906,-1.9200000762939453 c0,-1.149999976158142 -1.7299998998641968,-1.9200000762939453 -3.8400001525878906,-1.9200000762939453 C268.5422058105469,272.0434875488281 266.82220458984375,272.8135070800781 266.82220458984375,273.9635314941406 z" id="svg_44" class="" fill="#41e841" fill-opacity="1"/></g></svg>