<svg version="1.1" xmlns="http://www.w3.org/2000/svg" xmlns:xlink="http://www.w3.org/1999/xlink" enable-background="new 0 0 1000 1000" xml:space="preserve" width="1000" height="1000"><rect id="backgroundrect" width="100%" height="100%" x="0" y="0" fill="none" stroke="none"/>
<metadata> Svg Vector Icons : http://www.onlinewebfonts.com/icon </metadata>

<g class="currentLayer" style=""><title>Layer 1</title><g id="svg_1" class="selected" fill="#e841e8" fill-opacity="1"><path d="M567.8,763.4l-5.6,3.9l-6.1,0.6c-2.6-0.8-4.7,0.2-7,1.4l-3.9,1.5l-12.4-5.6l-11.8-6.6l-1.6,1.3c-6.4,5.5-3.5,14.3,0.1,21.8l8.5,14.1h-3.7l3.2,10.6l3.1,5.6l7.9,7.9l8.4,5.5l10.3-0.8l3.9-9.5c0.5-1.7,1.1-2.8,3.4-3.6l7.9-3.6l5-12.7l3.3-14.2l-2.1-11.3C578,767.2,576.2,758.6,567.8,763.4z M988.9,772.7c-0.5-0.6-1.5-1.6-3.3-1.6c-1.2,0-2.5,0.5-3.8,1.3l-5.3,2.9h-1.8l-5.1-8c-2.5-3.7-5.4-6.1-7.5-6.3l-0.7-0.1l-0.7,0.3c-4.4,1.7-5.6,6.8-6.1,10.9l-0.6,2c-1.4,4.2-2.6,7.8-4.2,9.4l-7,10.6l-4.7,8.3L922.1,819L901,834.4c-5,2.5-11.3,8.5-18.8,17.9l-9,12.5c-2.6,0.7-5.6,4-8,8.7c-2.1,3.4-2.7,6-1.8,8.1c0.7,1.8,2.4,3.1,5.1,3.7l0.6,0.2l8.6-1.4l0.7-1c0.7-1,1.2-1,2.1-0.8l16.4,5.6l14,3.7l0.5,0c10.7-0.8,18.9-8.8,24.6-24.3l1.8-10.2l2.1-4.7l0.9-0.1l0.9-1.2c1-1.4,1.8-3.7-1.3-13.7l3.5-0.4c0.7,0.2,1.4,0.2,1.7,0.2c2.4,0,5-1.4,8.1-4.4c1.4-1.4,3.2-2.4,4.9-2.5l10.9,3.1l-2.3-7.3c-1.4-3.9-0.4-6.9,4.1-10.7l14.7-17.1l3.9-19.8C990.2,775.6,989.8,773.6,988.9,772.7z M655.7,497.5l1.3-16.9c0-5.3-4.2-12.1-13.5-22l-18.3-16.9c-2.9-2.3-4.9-5-6-8l-5.3-13.9l-5.5-3.7l-5.1,0.8c-1.5,0-2.8-0.4-4.8-5.6l-8.9-20.8c-4.9-8.2-8.9-12.7-12.9-14.4c-12.2-4.4-21.8-10.1-26.1-15.6c-5-6.8-8.4-17.2-10.1-30.9l-8.7-16.6l-0.6-12.8c0-8.3-4.7-11.4-9.3-11.6c-1.6-0.6-3.4-1.5-3.9-2l-3.7-4.7l-7.5,2.2c0-0.2-0.1-0.5-0.1-1l-1.4-14.6c-1.7-7.7-3-13.1-6.3-14.4c-0.9-1.2-2.3-3.6-3.3-6.5l-5-12.4l-5.7-7.5h-1.5c-5.3,0-7.1,8.1-7.8,11.3l-3.2,6.5c-2.6,3.2-4,5.9-3.3,10.1l-3,47.4l-5.5,20.7l-7,12.2c-3.8,2.7-7.3,3.2-12.5,1.8l-15.2-13.8l-1-0.1c-9.7-0.8-10.8-2.6-10.8-2.7l-11.6-8.6l-0.8-0.4c-7.4-2.5-8.8-4-9.1-4.4l-9.3-6.1l-7-6.3c-1-3.1,0.6-8.4,4.9-16.5l11.6-16.6l3.1-6.8l0.2-0.7c0.6-3.4,0.2-5.9-1.2-7.5c-0.9-1-2.2-1.6-3.5-1.6h-1.4c-4.2,0-5.9,4.1-7.1,6.9c-0.1,0.3-0.2,0.5-0.3,0.7c-0.1-0.1-0.2-0.1-0.4-0.2c-8.9-5.5-17.1-8-25.4-7.8l-13.3-3l-11.5-6.6l-18.3-2.5l11.2,14.1c0.3,0.5,0.5,0.8,0.5,0.9c-0.3,0.2-1.3,0.5-3.3,0.8l-9.8,0.6h-8.2c-0.9-0.3-1.7-0.5-2.4-0.5c-4.6,0-5.3,4.6-5.4,7.2L279,275.7l-5.3,9.7l1,1.4c0.3,0.5,0.7,1,1.2,1.6c1.2,1.5,2.6,3.3,3.4,5.9v2l-1.1,0.5c-0.4-0.2-0.7-0.5-0.8-0.5l-5.4-4.2c-1.7-1.2-3.4-1.8-5.2-1.8c-4.9,0-8,4.8-9.1,6.6c-0.3,0.6-0.5,1-0.7,1.2c-0.4-0.4-1-1.1-1.9-2.6l-4.5-13.2c-1.6-3.9-4.6-6-8.5-6c-1.6,0-3.4,0.4-6,1.6c-2.2,1.5-4,2.5-5.2,3.2c-2.9-1.6-6.7-0.5-14.3,5l-12,9.9l-0.3,0.9c-0.2,0.9-1.5,4.2-7.7,9l-0.7,0.5L193,313l2.9,3.3h-2.6c-7.3,0-11.7,1.5-13.2,4.6c-0.9,1.8-0.6,3.9,0.9,5.7l0.2,0.3c-1.1,0.5-2.1,1.3-3,2.8l-0.4,0.8l-2.4-5.1l-1.7-1.9h-0.4l-0.1-0.1l-0.2,0.1h-0.5c-1.1,0-4.5,0-17.2,18.9c-10,15.8-17.5,25.3-20.6,28.4c-2.3,1.8-6.6,4.3-14.6,6.3l-54.5,14.8l-18.2,12.5l-12.2,12.2l-4.1-1.7c-1.7-0.5-4.2-0.2-5.7,1.5c-1.5,1.7-3.2,5.3-1.8,18.3c0.1,0.8-0.5,3.5-4.1,11.3c-4.8,7.5-2.5,13.1-0.1,16l6.7,12l2.3,11.4l-0.3-0.2c-0.5-5-3.3-8.6-7.9-9.5l-2-0.4l-3.6,5.3l2.3,2.7L10,481l17.3,38c10.6,24.1,12.9,33.9,12.9,37.9l13.2,35.9c0.5,6.6-0.2,12.2-2.3,17.4L45,623.4c-3.1,3.5-4.2,7-3.3,10.4c1.2,5,6.7,9.1,16.8,12.6c11.5,3.8,22.5,5.8,32.9,5.8c5.1,0,11.3-3.3,20-10.6c7.3-5.7,13.6-10.5,16.3-10.5l36,0c13.1-1.5,22.8-5.7,30.7-13.5c6.8-8.4,17.3-13.2,31.2-14.4l17.8-2c6.1-1.3,11.5-4.1,16.4-6.5l1-0.9c2.3-3.1,7.7-4.9,18.1-6.1l32.1,1.8c9.9,2.2,21.2,4.8,29,7.9c9.1,3.2,11.1,6.3,11.1,7.2c0,5.7,2.8,11.5,7.3,15.2c4.7,4.2,6.7,7.2,7.1,11.2c0.6,5.3,1.8,11.8,6.1,15.8c0.7,1.5,1.6,2.4,2.5,3v0.2l0.2-0.1c1,0.6,2.1,0.7,2.7,0.7c3.2,0,5.9-2.6,8-5.1l16.9-21.7c3.6-4.7,6.4-7.8,8.3-9.9l-0.3,2.8l-2.9,9.1c-3.1,2.9-3.5,7.2-3.5,10.3v6l-10.7,8.7v1.4c0,0.1,0.1,0.2,0.1,0.3l-3.8,3.1h5.1c0.8,0.8,1.8,1.3,3.2,1.3c1.3,0,2.8-0.5,5-1.5l6.4-3.5l0.4-0.7c2.4-4.4,4-7,5.2-8.4l0.6,20.4l11.9,0.8l5.4-1.4l6.8,18.5c-3.5,15.1,5.1,26.9,26.8,36.2l24.8,6.3l19.5-0.7c4.7-0.7,8.6-4.3,11.5-10.6l1.9-2.2c0.8,0.2,1.5,0.4,2.2,0.9l7.2,10.8c3.7,5.2,7.6,7.9,11.6,7.9c1.8,0,3.5-0.6,5.2-1.7l11.5-9.5c4.2-4,7.6-5.7,9.3-6.7l24.8-6.3c16.2-6.9,15-17,12.9-22.4c-3.9-10,15-51.6,21.2-65.4c1.6-3.7,6.4-11.7,20-24.5c3.3-3.2,5.2-14.3,5.8-32.5l5-23.7c1.4-8.9,0.1-17.7-3.3-24.5C655.3,507.4,654.7,502.6,655.7,497.5z M584.5,162.7l7.8,3l22.7,1.4l8.2-4.4l0.7-0.5c3-2.9,5.2-3.2,6.7-3.2c5.3,0.7,8-0.5,8.2-4.2l0-0.5l-1.2-4l0.5-0.2c4.3-2.2,6.3-5.3,6.4-10.2v-0.6l-1.9-4.7h-8.7c-2,0-3.4,0.6-4.1,1.5c-1.4,1.6-0.9,3.6-0.7,4.3c0.3,1.1,0,2.3-0.5,2.8c-3.9,0.8-5.4,2.4-6.1,3.7c-4.4,5.1-8.3,6.9-10.5,6.9c-0.5,0-1.4-0.3-2.4-0.7l-6.1-2.8l-3.3,3.2l-3.6,2l-10.1-1.9l-3.3,0.7c-0.8,0-2.6,0.3-3.7,2.3l-2.7,1.4l3,2.8C580.6,161.7,581.7,162.3,584.5,162.7z M473.9,215.5c13,3.2,21.7,1.4,27.3-5.3l0.5-0.6l0.2-0.7c0.9-4.5-4.7-5.9-7.5-6.6c-4.8-1.4-5.5-2.4-5.7-2.8h13.9l2.3-6.3c0.5-2,0.8-3,1.3-3.5l9.9,1.7l13.5,1.8l1.6-0.1c0.6,0,2.8,0.3,6.4,3.3l6.8,7.9c4.7,6.5,10.9,11.7,17.7,15.3l5.9,8.3l16.4,1.4l15.4,6.5l18.2,1l-4.1-6.2l-7.7-5.9l-1.2-5.8l-5-2.1l-4-0.7l-1.4-5.5l-5.2-0.8l-6.1-1.6l-5.7-10.2l-0.7-0.8c-15-11.8-18.7-16.9-19.2-19.5l0.5-0.9c0.3-0.8,2-1.3,4.7-1.3l7.6-0.7l1.9-2.5l-0.3-1.4c-0.7-4.5-10.5-10.1-28.9-16.7c-3-1-3.8-1.7-3.9-2.3l0.1-0.4l-0.5-6l-0.2-0.9c-1.9-4.7-5.3-8.7-9.2-11.3c-3.4-2.7-7.9-4.5-14.2-5.3c-5.5,0-20.9-5.7-52.4-19.3v104.4L473.9,215.5z" id="svg_2" fill="#e841e8" fill-opacity="1"/></g></g></svg>